<svg width="1288" height="508" viewBox="0 0 1288 508" fill="none" xmlns="http://www.w3.org/2000/svg">
<g filter="url(#filter0_d_2612_8321)">
<rect x="4.5" y="0.5" width="1279" height="499" rx="24.5" stroke="#E8ECF2"/>
<path d="M585.112 149.868H589.9V175.932H585.112V149.868ZM588.208 160.776H594.076V164.664H588.208V160.776ZM567.652 178.812H591.016V182.628H567.652V178.812ZM567.652 174.24H572.476V179.928H567.652V174.24ZM571 165.888H575.788V170.748H571V165.888ZM563.584 172.692L563.044 169.02C568.84 169.02 576.868 168.912 583.636 167.904L583.996 171.18C577.084 172.476 569.272 172.62 563.584 172.692ZM563.908 152.532H582.808V155.988H563.908V152.532ZM573.376 156.852C578.272 156.852 581.476 158.796 581.476 162.036C581.476 165.204 578.272 167.184 573.376 167.184C568.48 167.184 565.24 165.204 565.24 162.036C565.24 158.796 568.48 156.852 573.376 156.852ZM573.376 160.056C571.108 160.056 569.776 160.704 569.776 162.036C569.776 163.296 571.108 163.944 573.376 163.944C575.608 163.944 576.94 163.296 576.94 162.036C576.94 160.704 575.608 160.056 573.376 160.056ZM571 149.724H575.788V154.008H571V149.724ZM609.193 150.408H613.297V151.416C613.297 157.356 608.365 162.216 599.797 163.404L598.033 159.66C605.521 158.76 609.193 154.908 609.193 151.416V150.408ZM609.985 150.408H614.089V151.416C614.089 154.908 617.761 158.76 625.213 159.66L623.485 163.404C614.917 162.216 609.985 157.32 609.985 151.416V150.408ZM596.557 165.168H626.689V168.948H596.557V165.168ZM611.569 171.144C618.769 171.144 623.125 173.34 623.125 177.192C623.125 181.08 618.769 183.24 611.569 183.24C604.333 183.24 599.977 181.08 599.977 177.192C599.977 173.34 604.333 171.144 611.569 171.144ZM611.569 174.744C607.105 174.744 604.837 175.536 604.837 177.192C604.837 178.884 607.105 179.64 611.569 179.64C616.033 179.64 618.301 178.884 618.301 177.192C618.301 175.536 616.033 174.744 611.569 174.744ZM644.758 154.512H654.55V158.328H644.758V154.512ZM644.758 162.612H654.55V166.428H644.758V162.612ZM652.786 149.904H657.574V174.276H652.786V149.904ZM635.578 178.812H658.33V182.628H635.578V178.812ZM635.578 171.864H640.366V180.792H635.578V171.864ZM638.89 151.848C643.822 151.848 647.674 155.448 647.674 160.488C647.674 165.456 643.822 169.092 638.89 169.092C633.922 169.092 630.07 165.456 630.07 160.488C630.07 155.448 633.922 151.848 638.89 151.848ZM638.89 156.06C636.442 156.06 634.642 157.716 634.642 160.488C634.642 163.26 636.442 164.916 638.89 164.916C641.302 164.916 643.138 163.26 643.138 160.488C643.138 157.716 641.302 156.06 638.89 156.06ZM670.28 152.208C674.708 152.208 677.552 156.78 677.552 164.304C677.552 171.864 674.708 176.436 670.28 176.436C665.888 176.436 663.08 171.864 663.08 164.304C663.08 156.78 665.888 152.208 670.28 152.208ZM670.28 156.708C668.48 156.708 667.436 159.228 667.436 164.304C667.436 169.416 668.48 171.9 670.28 171.9C672.116 171.9 673.16 169.416 673.16 164.304C673.16 159.228 672.116 156.708 670.28 156.708ZM686.876 149.868H691.448V183.204H686.876V149.868ZM682.88 162.576H688.388V166.428H682.88V162.576ZM679.568 150.372H684.068V181.692H679.568V150.372ZM699.653 158.868H722.765V162.648H699.653V158.868ZM695.909 166.104H726.113V169.92H695.909V166.104ZM699.653 151.056H704.405V160.74H699.653V151.056ZM699.329 178.668H722.945V182.484H699.329V178.668ZM699.329 172.584H704.117V179.676H699.329V172.584ZM742.086 151.416H763.218V155.232H742.086V151.416ZM738.378 163.548H768.546V167.328H738.378V163.548ZM760.338 151.416H765.054V154.08C765.054 156.996 765.054 160.344 764.01 164.736L759.294 164.268C760.338 159.984 760.338 156.924 760.338 154.08V151.416ZM753.462 170.136C760.662 170.136 765.162 172.548 765.162 176.688C765.162 180.828 760.662 183.204 753.462 183.204C746.226 183.204 741.726 180.828 741.726 176.688C741.726 172.548 746.226 170.136 753.462 170.136ZM753.462 173.988C748.962 173.988 746.55 174.816 746.55 176.688C746.55 178.524 748.962 179.388 753.462 179.388C757.962 179.388 760.338 178.524 760.338 176.688C760.338 174.816 757.962 173.988 753.462 173.988ZM789.567 157.932H795.903V161.82H789.567V157.932ZM794.607 149.868H799.395V169.668H794.607V149.868ZM788.091 170.388C795.147 170.388 799.503 172.8 799.503 176.832C799.503 180.9 795.147 183.24 788.091 183.24C781.035 183.24 776.679 180.9 776.679 176.832C776.679 172.8 781.035 170.388 788.091 170.388ZM788.091 174.024C783.771 174.024 781.467 174.924 781.467 176.832C781.467 178.704 783.771 179.604 788.091 179.604C792.447 179.604 794.751 178.704 794.751 176.832C794.751 174.924 792.447 174.024 788.091 174.024ZM779.199 153.216H783.087V155.304C783.087 161.676 780.135 167.508 773.763 169.668L771.315 165.888C776.823 164.016 779.199 159.588 779.199 155.304V153.216ZM780.207 153.216H784.059V155.304C784.059 159.228 786.327 163.296 791.583 165.06L789.243 168.84C783.051 166.788 780.207 161.244 780.207 155.304V153.216ZM772.611 151.884H790.539V155.7H772.611V151.884ZM812.316 153.18H816.204V155.304C816.204 161.568 813.252 167.364 806.844 169.452L804.432 165.672C809.94 163.872 812.316 159.48 812.316 155.304V153.18ZM813.324 153.18H817.176V155.304C817.176 159.192 819.444 163.296 824.7 165.06L822.36 168.804C816.168 166.752 813.324 161.208 813.324 155.304V153.18ZM822.756 157.824H829.092V161.712H822.756V157.824ZM805.728 151.704H823.656V155.484H805.728V151.704ZM809.796 171.216H832.512V183.204H827.724V175.032H809.796V171.216ZM827.724 149.868H832.512V169.704H827.724V149.868ZM860.625 149.904H865.449V173.844H860.625V149.904ZM843.237 178.812H866.277V182.628H843.237V178.812ZM843.237 171.432H848.025V180.36H843.237V171.432ZM847.305 151.992C852.417 151.992 856.341 155.52 856.341 160.452C856.341 165.348 852.417 168.912 847.305 168.912C842.193 168.912 838.233 165.348 838.233 160.452C838.233 155.52 842.193 151.992 847.305 151.992ZM847.305 156.132C844.821 156.132 842.913 157.716 842.913 160.452C842.913 163.152 844.821 164.736 847.305 164.736C849.753 164.736 851.661 163.152 851.661 160.452C851.661 157.716 849.753 156.132 847.305 156.132ZM894.958 154.224H904.822V158.04H894.958V154.224ZM894.958 161.604H904.822V165.456H894.958V161.604ZM889.414 151.632C894.382 151.632 898.198 155.088 898.198 159.804C898.198 164.52 894.382 167.976 889.414 167.976C884.41 167.976 880.594 164.52 880.594 159.804C880.594 155.088 884.41 151.632 889.414 151.632ZM889.414 155.7C886.966 155.7 885.166 157.176 885.166 159.804C885.166 162.396 886.966 163.944 889.414 163.944C891.862 163.944 893.662 162.396 893.662 159.804C893.662 157.176 891.862 155.7 889.414 155.7ZM903.31 149.868H908.098V169.38H903.31V149.868ZM896.794 170.064C903.814 170.064 908.206 172.512 908.206 176.652C908.206 180.792 903.814 183.204 896.794 183.204C889.774 183.204 885.382 180.792 885.382 176.652C885.382 172.512 889.774 170.064 896.794 170.064ZM896.794 173.772C892.438 173.772 890.098 174.708 890.098 176.652C890.098 178.596 892.438 179.532 896.794 179.532C901.186 179.532 903.49 178.596 903.49 176.652C903.49 174.708 901.186 173.772 896.794 173.772ZM938.083 154.656H943.843V158.544H938.083V154.656ZM938.083 161.892H943.843V165.78H938.083V161.892ZM934.771 149.868H939.559V171H934.771V149.868ZM928.723 171.36C935.599 171.36 939.919 173.556 939.919 177.3C939.919 181.008 935.599 183.204 928.723 183.204C921.847 183.204 917.527 181.008 917.527 177.3C917.527 173.556 921.847 171.36 928.723 171.36ZM928.723 174.96C924.511 174.96 922.279 175.716 922.279 177.3C922.279 178.884 924.511 179.64 928.723 179.64C932.935 179.64 935.167 178.884 935.167 177.3C935.167 175.716 932.935 174.96 928.723 174.96ZM913.315 153.036H932.935V156.744H913.315V153.036ZM923.143 157.86C927.967 157.86 931.315 160.272 931.315 163.836C931.315 167.436 927.967 169.812 923.143 169.812C918.283 169.812 914.935 167.436 914.935 163.836C914.935 160.272 918.283 157.86 923.143 157.86ZM923.143 161.352C920.983 161.352 919.543 162.216 919.543 163.836C919.543 165.456 920.983 166.32 923.143 166.32C925.267 166.32 926.743 165.456 926.743 163.836C926.743 162.216 925.267 161.352 923.143 161.352ZM920.731 149.652H925.519V155.016H920.731V149.652ZM961.516 150.336C969.112 150.336 973.576 152.352 973.576 156.024C973.576 159.696 969.112 161.712 961.516 161.712C953.884 161.712 949.456 159.696 949.456 156.024C949.456 152.352 953.884 150.336 961.516 150.336ZM961.516 153.828C956.692 153.828 954.424 154.548 954.424 156.024C954.424 157.572 956.692 158.22 961.516 158.22C966.34 158.22 968.608 157.572 968.608 156.024C968.608 154.548 966.34 153.828 961.516 153.828ZM946.432 163.26H976.564V167.04H946.432V163.26ZM949.888 168.912H972.928V177.48H954.64V180.432H949.924V174.168H968.212V172.476H949.888V168.912ZM949.924 179.388H973.792V182.988H949.924V179.388ZM990.557 152.856H1006.58V175.284H990.557V152.856ZM1001.9 156.6H995.273V171.504H1001.9V156.6ZM1011.76 149.832H1016.58V183.276H1011.76V149.832ZM1044.91 149.868H1049.74V183.204H1044.91V149.868ZM1030.23 158.508H1034.01V160.236C1034.01 167.292 1030.87 174.384 1024.72 177.048L1022.16 173.376C1027.63 170.928 1030.23 165.276 1030.23 160.236V158.508ZM1031.27 158.508H1035.01V160.236C1035.01 165.024 1037.64 170.496 1043.15 172.836L1040.59 176.508C1034.44 173.952 1031.27 167.076 1031.27 160.236V158.508ZM1023.28 155.304H1041.82V159.084H1023.28V155.304ZM1030.23 150.624H1035.01V157.248H1030.23V150.624ZM1058.88 158.868H1081.99V162.648H1058.88V158.868ZM1055.14 166.104H1085.34V169.92H1055.14V166.104ZM1058.88 151.056H1063.63V160.74H1058.88V151.056ZM1058.56 178.668H1082.17V182.484H1058.56V178.668ZM1058.56 172.584H1063.34V179.676H1058.56V172.584ZM1109.56 149.832H1114.39V183.168H1109.56V149.832ZM1113.13 162.576H1119V166.5H1113.13V162.576ZM1100.82 153.288H1105.5C1105.5 163.296 1101.68 171.864 1090.59 177.444L1087.93 173.808C1096.68 169.272 1100.82 163.152 1100.82 154.116V153.288ZM1089.76 153.288H1103.26V157.14H1089.76V153.288ZM1124.86 170.784C1124.86 169.944 1124.96 169.212 1125.15 168.588C1125.37 167.94 1125.7 167.328 1126.16 166.752C1126.64 166.176 1127.27 165.588 1128.07 164.988C1128.88 164.364 1129.52 163.824 1129.97 163.368C1130.45 162.912 1130.8 162.468 1131.02 162.036C1131.23 161.58 1131.34 161.064 1131.34 160.488C1131.34 159.576 1131.02 158.88 1130.37 158.4C1129.75 157.92 1128.85 157.68 1127.67 157.68C1126.61 157.68 1125.61 157.836 1124.65 158.148C1123.69 158.436 1122.73 158.832 1121.77 159.336L1120.15 155.952C1121.25 155.376 1122.45 154.896 1123.75 154.512C1125.04 154.128 1126.47 153.936 1128.03 153.936C1130.43 153.936 1132.29 154.524 1133.61 155.7C1134.95 156.876 1135.63 158.4 1135.63 160.272C1135.63 161.304 1135.46 162.192 1135.12 162.936C1134.81 163.656 1134.34 164.328 1133.72 164.952C1133.09 165.576 1132.33 166.236 1131.41 166.932C1130.67 167.508 1130.09 168 1129.69 168.408C1129.3 168.816 1129.04 169.224 1128.89 169.632C1128.77 170.016 1128.71 170.496 1128.71 171.072V171.972H1124.86V170.784ZM1124.18 177.696C1124.18 176.664 1124.44 175.944 1124.97 175.536C1125.52 175.128 1126.18 174.924 1126.95 174.924C1127.69 174.924 1128.33 175.128 1128.86 175.536C1129.41 175.944 1129.69 176.664 1129.69 177.696C1129.69 178.68 1129.41 179.388 1128.86 179.82C1128.33 180.252 1127.69 180.468 1126.95 180.468C1126.18 180.468 1125.52 180.252 1124.97 179.82C1124.44 179.388 1124.18 178.68 1124.18 177.696Z" fill="#00008A"/>
<path d="M567.18 246.66H568.88V253.56H567.18V246.66ZM573.4 246.66H575.1V253.56H573.4V246.66ZM562.98 245.76H579.38V247.14H562.98V245.76ZM571.14 236.2C574.92 236.2 577.46 237.72 577.46 240.14C577.46 242.54 574.92 244.08 571.14 244.08C567.38 244.08 564.82 242.54 564.82 240.14C564.82 237.72 567.38 236.2 571.14 236.2ZM571.14 237.54C568.38 237.54 566.5 238.56 566.5 240.14C566.5 241.72 568.38 242.74 571.14 242.74C573.9 242.74 575.76 241.72 575.76 240.14C575.76 238.56 573.9 237.54 571.14 237.54ZM594.538 235.48H596.198V253.56H594.538V235.48ZM582.538 237.24H584.178V248.44H582.538V237.24ZM582.538 247.46H584.018C586.758 247.46 589.618 247.26 592.678 246.62L592.878 248.04C589.738 248.68 586.878 248.9 584.018 248.9H582.538V247.46ZM600.437 237.26H602.017V241.66H605.817V237.26H607.357V249.02H600.437V237.26ZM602.017 243V247.66H605.817V243H602.017ZM613.557 235.48H615.157V253.56H613.557V235.48ZM607.077 242.34H610.557V243.72H607.077V242.34ZM609.977 235.86H611.557V252.66H609.977V235.86ZM631.315 235.46H632.975V253.58H631.315V235.46ZM623.435 236.86C626.115 236.86 628.035 239.32 628.035 243.16C628.035 247.02 626.115 249.48 623.435 249.48C620.775 249.48 618.855 247.02 618.855 243.16C618.855 239.32 620.775 236.86 623.435 236.86ZM623.435 238.36C621.675 238.36 620.435 240.24 620.435 243.16C620.435 246.1 621.675 248.02 623.435 248.02C625.215 248.02 626.435 246.1 626.435 243.16C626.435 240.24 625.215 238.36 623.435 238.36ZM643.914 242.5H647.334V243.88H643.914V242.5ZM650.354 235.48H651.954V253.56H650.354V235.48ZM646.774 235.86H648.354V252.66H646.774V235.86ZM640.654 236.98C642.994 236.98 644.514 239.4 644.514 243.28C644.514 247.16 642.994 249.58 640.654 249.58C638.314 249.58 636.814 247.16 636.814 243.28C636.814 239.4 638.314 236.98 640.654 236.98ZM640.654 238.52C639.234 238.52 638.334 240.36 638.334 243.28C638.334 246.2 639.234 248.04 640.654 248.04C642.094 248.04 642.994 246.2 642.994 243.28C642.994 240.36 642.094 238.52 640.654 238.52ZM664.012 241.6H669.052V242.96H664.012V241.6ZM659.652 237.04H661.012V240.26C661.012 244.32 658.872 248.2 656.012 249.74L654.952 248.42C657.612 247.1 659.652 243.62 659.652 240.26V237.04ZM659.972 237.04H661.312V240.26C661.312 243.56 663.352 246.84 665.972 248.08L664.992 249.42C662.072 247.94 659.972 244.22 659.972 240.26V237.04ZM668.232 235.46H669.872V253.58H668.232V235.46ZM683.006 237.04H684.366V240.28C684.366 244.28 682.206 248.18 679.346 249.7L678.326 248.38C680.946 247.06 683.006 243.58 683.006 240.28V237.04ZM683.306 237.04H684.646V240.28C684.646 243.46 686.666 246.76 689.226 248.04L688.206 249.36C685.406 247.86 683.306 244.16 683.306 240.28V237.04ZM690.806 235.48H692.486V253.56H690.806V235.48ZM692.086 242.8H695.446V244.2H692.086V242.8ZM709.344 235.5H711.004V246.26H709.344V235.5ZM710.504 240.1H713.684V241.5H710.504V240.1ZM699.604 247.16H711.004V253.32H699.604V247.16ZM709.384 248.48H701.244V251.98H709.384V248.48ZM697.764 243.96H699.184C702.464 243.96 704.804 243.88 707.624 243.38L707.764 244.74C704.904 245.22 702.524 245.34 699.184 245.34H697.764V243.96ZM697.724 236.46H705.864V241.42H699.384V244.74H697.764V240.14H704.224V237.82H697.724V236.46ZM715.383 243.02H731.723V244.38H715.383V243.02ZM717.543 240.22H729.783V241.56H717.543V240.22ZM717.543 236.06H729.583V237.42H719.183V241.3H717.543V236.06ZM717.343 245.94H729.623V250.2H719.023V252.48H717.383V248.96H727.983V247.24H717.343V245.94ZM717.383 252.04H730.163V253.36H717.383V252.04ZM739.641 236.78C742.461 236.78 744.481 238.52 744.481 241.04C744.481 243.58 742.461 245.32 739.641 245.32C736.821 245.32 734.781 243.58 734.781 241.04C734.781 238.52 736.821 236.78 739.641 236.78ZM739.641 238.22C737.761 238.22 736.401 239.36 736.401 241.04C736.401 242.72 737.761 243.88 739.641 243.88C741.501 243.88 742.861 242.72 742.861 241.04C742.861 239.36 741.501 238.22 739.641 238.22ZM746.841 235.46H748.501V253.58H746.841V235.46ZM734.101 249.62L733.861 248.24C737.161 248.24 741.721 248.22 745.661 247.6L745.801 248.82C741.741 249.6 737.321 249.62 734.101 249.62ZM765.735 238.3H771.175V239.66H765.735V238.3ZM765.735 242.64H771.175V244H765.735V242.64ZM770.575 235.5H772.235V248.86H770.575V235.5ZM760.695 251.8H772.735V253.16H760.695V251.8ZM760.695 247.48H762.355V252.4H760.695V247.48ZM762.295 236.64C764.955 236.64 766.955 238.5 766.955 241.16C766.955 243.82 764.955 245.68 762.295 245.68C759.635 245.68 757.635 243.82 757.635 241.16C757.635 238.5 759.635 236.64 762.295 236.64ZM762.295 238.1C760.535 238.1 759.235 239.38 759.235 241.16C759.235 242.96 760.535 244.24 762.295 244.24C764.055 244.24 765.375 242.96 765.375 241.16C765.375 239.38 764.055 238.1 762.295 238.1ZM779.833 236.98C782.173 236.98 783.693 239.4 783.693 243.28C783.693 247.16 782.173 249.58 779.833 249.58C777.493 249.58 775.993 247.16 775.993 243.28C775.993 239.4 777.493 236.98 779.833 236.98ZM779.833 238.52C778.413 238.52 777.513 240.36 777.513 243.28C777.513 246.2 778.413 248.04 779.833 248.04C781.253 248.04 782.153 246.2 782.153 243.28C782.153 240.36 781.253 238.52 779.833 238.52ZM789.533 235.48H791.133V253.56H789.533V235.48ZM786.673 242.64H790.133V244H786.673V242.64ZM785.533 235.86H787.113V252.66H785.533V235.86ZM795.132 236.88H803.132V238.24H795.132V236.88ZM797.852 240.92H799.492V245.44H797.852V240.92ZM802.472 236.88H804.112V237.84C804.112 239.02 804.112 240.82 803.632 243.2L802.012 243.02C802.472 240.64 802.472 239 802.472 237.84V236.88ZM806.572 235.48H808.232V249.1H806.572V235.48ZM807.472 241.36H810.812V242.74H807.472V241.36ZM796.812 251.8H808.812V253.16H796.812V251.8ZM796.812 247.84H798.452V252.22H796.812V247.84ZM794.212 246.22L794.032 244.86C797.252 244.86 801.692 244.78 805.352 244.28L805.472 245.48C801.712 246.14 797.392 246.22 794.212 246.22ZM813.37 237.46H821.55V238.8H813.37V237.46ZM816.19 242.62H817.83V248.74H816.19V242.62ZM820.87 237.46H822.49V238.42C822.49 239.9 822.49 242.26 821.97 245.62L820.33 245.46C820.87 242.2 820.87 239.88 820.87 238.42V237.46ZM824.77 235.48H826.41V253.56H824.77V235.48ZM825.97 243.04H829.31V244.44H825.97V243.04ZM812.57 249.62L812.37 248.22C815.65 248.22 820.01 248.16 823.67 247.7L823.75 248.92C820.01 249.52 815.77 249.6 812.57 249.62ZM831.769 237.46H839.949V238.8H831.769V237.46ZM834.589 242.62H836.229V248.74H834.589V242.62ZM839.269 237.46H840.889V238.42C840.889 239.9 840.889 242.26 840.369 245.62L838.729 245.46C839.269 242.2 839.269 239.88 839.269 238.42V237.46ZM843.169 235.48H844.809V253.56H843.169V235.48ZM844.369 243.04H847.709V244.44H844.369V243.04ZM830.969 249.62L830.769 248.22C834.049 248.22 838.409 248.16 842.069 247.7L842.149 248.92C838.409 249.52 834.169 249.6 830.969 249.62Z" fill="#5A4978"/>
<path d="M575.34 277.48H577V291.64H575.34V277.48ZM576.3 283.78H579.64V285.16H576.3V283.78ZM565.56 293.8H577.64V295.16H565.56V293.8ZM565.56 290.7H567.22V294.22H565.56V290.7ZM567.72 286.32H569.38V288.78H567.72V286.32ZM563.1 289.56L562.88 288.22C566.08 288.22 570.54 288.16 574.26 287.58L574.4 288.76C570.58 289.46 566.24 289.54 563.1 289.56ZM563.34 279.24H573.72V280.5H563.34V279.24ZM568.54 281.24C571.08 281.24 572.74 282.3 572.74 284.02C572.74 285.76 571.08 286.82 568.54 286.82C566 286.82 564.32 285.76 564.32 284.02C564.32 282.3 566 281.24 568.54 281.24ZM568.54 282.42C566.92 282.42 565.88 283.04 565.88 284.02C565.88 285.02 566.92 285.62 568.54 285.62C570.14 285.62 571.18 285.02 571.18 284.02C571.18 283.04 570.14 282.42 568.54 282.42ZM567.72 277.4H569.38V279.8H567.72V277.4ZM588.718 277.78H590.138V278.58C590.138 281.78 586.658 284.08 582.958 284.68L582.338 283.36C585.578 282.92 588.718 280.92 588.718 278.58V277.78ZM588.978 277.78H590.398V278.58C590.398 280.88 593.578 282.92 596.778 283.36L596.158 284.68C592.478 284.08 588.978 281.72 588.978 278.58V277.78ZM581.378 286.1H597.718V287.46H581.378V286.1ZM589.538 289.12C593.418 289.12 595.738 290.28 595.738 292.32C595.738 294.4 593.418 295.54 589.538 295.54C585.658 295.54 583.338 294.4 583.338 292.32C583.338 290.28 585.658 289.12 589.538 289.12ZM589.538 290.4C586.718 290.4 585.018 291.12 585.018 292.32C585.018 293.56 586.718 294.26 589.538 294.26C592.378 294.26 594.058 293.56 594.058 292.32C594.058 291.12 592.378 290.4 589.538 290.4ZM608.157 280.3H613.597V281.66H608.157V280.3ZM608.157 284.64H613.597V286H608.157V284.64ZM612.997 277.5H614.657V290.86H612.997V277.5ZM603.117 293.8H615.157V295.16H603.117V293.8ZM603.117 289.48H604.777V294.4H603.117V289.48ZM604.717 278.64C607.377 278.64 609.377 280.5 609.377 283.16C609.377 285.82 607.377 287.68 604.717 287.68C602.057 287.68 600.057 285.82 600.057 283.16C600.057 280.5 602.057 278.64 604.717 278.64ZM604.717 280.1C602.957 280.1 601.657 281.38 601.657 283.16C601.657 284.96 602.957 286.24 604.717 286.24C606.477 286.24 607.797 284.96 607.797 283.16C607.797 281.38 606.477 280.1 604.717 280.1ZM622.255 278.98C624.595 278.98 626.115 281.4 626.115 285.28C626.115 289.16 624.595 291.58 622.255 291.58C619.915 291.58 618.415 289.16 618.415 285.28C618.415 281.4 619.915 278.98 622.255 278.98ZM622.255 280.52C620.835 280.52 619.935 282.36 619.935 285.28C619.935 288.2 620.835 290.04 622.255 290.04C623.675 290.04 624.575 288.2 624.575 285.28C624.575 282.36 623.675 280.52 622.255 280.52ZM631.955 277.48H633.555V295.56H631.955V277.48ZM629.095 284.64H632.555V286H629.095V284.64ZM627.955 277.86H629.535V294.66H627.955V277.86ZM641.789 291.86H658.169V293.24H641.789V291.86ZM643.209 279.28H656.629V280.64H643.209V279.28ZM643.249 286.92H656.609V288.28H643.249V286.92ZM646.029 280.54H647.689V287.06H646.029V280.54ZM652.189 280.54H653.829V287.06H652.189V280.54ZM660.188 291.96H676.568V293.34H660.188V291.96ZM667.508 288.08H669.168V292.54H667.508V288.08ZM662.168 278.82H674.548V284.3H663.868V287.92H662.228V282.96H672.908V280.16H662.168V278.82ZM662.228 287.22H674.968V288.58H662.228V287.22ZM680.346 279.4H691.986V280.74H680.346V279.4ZM678.586 291.54H694.926V292.92H678.586V291.54ZM691.106 279.4H692.726V281.2C692.726 283.52 692.726 286.1 692.046 290L690.386 289.84C691.106 286.14 691.106 283.44 691.106 281.2V279.4ZM710.624 277.48H712.204V288.26H710.624V277.48ZM707.704 282.06H711.124V283.44H707.704V282.06ZM706.644 277.82H708.204V288.04H706.644V277.82ZM700.344 289.14H712.204V295.32H700.344V289.14ZM710.604 290.46H701.964V293.98H710.604V290.46ZM697.804 286.14H698.964C701.504 286.14 703.384 286.06 705.604 285.62L705.764 286.96C703.484 287.4 701.584 287.48 698.964 287.48H697.804V286.14ZM697.764 278.68H704.564V283.6H699.404V287.06H697.804V282.34H702.964V280H697.764V278.68ZM723.543 277.78C727.523 277.78 729.903 278.9 729.903 280.92C729.903 282.94 727.523 284.06 723.543 284.06C719.543 284.06 717.183 282.94 717.183 280.92C717.183 278.9 719.543 277.78 723.543 277.78ZM723.543 279.04C720.583 279.04 718.883 279.72 718.883 280.92C718.883 282.12 720.583 282.8 723.543 282.8C726.483 282.8 728.183 282.12 728.183 280.92C728.183 279.72 726.483 279.04 723.543 279.04ZM715.363 285.26H731.703V286.6H715.363V285.26ZM717.343 288.14H729.623V292.22H719.023V294.42H717.383V291.02H727.983V289.42H717.343V288.14ZM717.383 294.06H730.163V295.36H717.383V294.06ZM738.977 291.88H755.357V293.26H738.977V291.88ZM746.297 287.56H747.957V292.28H746.297V287.56ZM740.897 278.76H742.537V281.98H751.757V278.76H753.397V288H740.897V278.76ZM742.537 283.32V286.64H751.757V283.32H742.537ZM759.095 279.28H770.735V280.66H759.095V279.28ZM757.375 291.66H773.715V293.04H757.375V291.66ZM763.715 285.2H765.375V292.34H763.715V285.2ZM770.115 279.28H771.755V281.08C771.755 283.32 771.755 285.8 771.095 289.46L769.435 289.24C770.115 285.78 770.115 283.24 770.115 281.08V279.28ZM782.969 285.64H795.489V287.02H782.969V285.64ZM780.969 291.7H797.349V293.08H780.969V291.7ZM782.969 279.06H784.629V286.26H782.969V279.06ZM812.507 277.52H814.167V290.62H812.507V277.52ZM802.367 293.8H814.687V295.16H802.367V293.8ZM802.367 289.66H804.027V294.64H802.367V289.66ZM803.267 279.02H804.807C804.807 282.68 803.787 285.52 800.747 287.88L799.627 286.82C802.307 284.84 803.267 282.56 803.267 279.26V279.02ZM800.007 279.02H804.067V280.38H800.007V279.02ZM808.467 279.02H810.007C810.007 282.8 809.167 286.04 806.047 288.74L804.867 287.72C807.667 285.42 808.467 282.66 808.467 279.22V279.02ZM805.527 279.02H809.227V280.38H805.527V279.02ZM827.406 282H831.426V283.38H827.406V282ZM830.966 277.48H832.626V288.06H830.966V277.48ZM820.906 288.94H832.626V295.32H820.906V288.94ZM831.006 290.26H822.526V293.98H831.006V290.26ZM822.366 279.2H823.726V280.66C823.726 283.96 821.686 286.78 818.666 287.9L817.806 286.58C820.506 285.62 822.366 283.22 822.366 280.66V279.2ZM822.686 279.2H824.026V280.64C824.026 282.98 825.786 285.24 828.406 286.16L827.566 287.48C824.626 286.42 822.686 283.68 822.686 280.64V279.2ZM818.326 278.64H827.986V279.98H818.326V278.64ZM844.324 277.78C848.304 277.78 850.684 278.9 850.684 280.92C850.684 282.94 848.304 284.06 844.324 284.06C840.324 284.06 837.964 282.94 837.964 280.92C837.964 278.9 840.324 277.78 844.324 277.78ZM844.324 279.04C841.364 279.04 839.664 279.72 839.664 280.92C839.664 282.12 841.364 282.8 844.324 282.8C847.264 282.8 848.964 282.12 848.964 280.92C848.964 279.72 847.264 279.04 844.324 279.04ZM836.144 285.26H852.484V286.6H836.144V285.26ZM838.124 288.14H850.404V292.22H839.804V294.42H838.164V291.02H848.764V289.42H838.124V288.14ZM838.164 294.06H850.944V295.36H838.164V294.06ZM864.478 285.96H866.138V288.28H864.478V285.96ZM872.098 277.5H873.758V289.62H872.098V277.5ZM873.058 282.96H876.398V284.34H873.058V282.96ZM859.858 289.1L859.638 287.74C862.878 287.74 867.278 287.74 871.018 287.2L871.158 288.38C867.298 289.06 863.018 289.08 859.858 289.1ZM861.878 290.52H873.758V295.56H872.098V291.84H861.878V290.52ZM860.098 279.12H870.478V280.36H860.098V279.12ZM865.298 281.06C867.838 281.06 869.498 282.08 869.498 283.74C869.498 285.4 867.838 286.42 865.298 286.42C862.738 286.42 861.078 285.4 861.078 283.74C861.078 282.08 862.738 281.06 865.298 281.06ZM865.298 282.2C863.678 282.2 862.638 282.78 862.638 283.74C862.638 284.66 863.678 285.26 865.298 285.26C866.898 285.26 867.938 284.66 867.938 283.74C867.938 282.78 866.898 282.2 865.298 282.2ZM864.478 277.34H866.138V279.72H864.478V277.34ZM891.296 277.5H892.976V290.7H891.296V277.5ZM881.356 293.8H893.516V295.16H881.356V293.8ZM881.356 289.34H882.996V294.26H881.356V289.34ZM883.276 278.74C885.976 278.74 887.976 280.58 887.976 283.2C887.976 285.8 885.976 287.66 883.276 287.66C880.576 287.66 878.556 285.8 878.556 283.2C878.556 280.58 880.576 278.74 883.276 278.74ZM883.276 280.18C881.516 280.18 880.176 281.42 880.176 283.2C880.176 284.96 881.516 286.2 883.276 286.2C885.036 286.2 886.376 284.96 886.376 283.2C886.376 281.42 885.036 280.18 883.276 280.18ZM896.515 280.56H905.475V281.92H896.515V280.56ZM900.995 283.12C903.255 283.12 904.895 284.82 904.895 287.26C904.895 289.68 903.255 291.38 900.995 291.38C898.755 291.38 897.115 289.68 897.115 287.26C897.115 284.82 898.755 283.12 900.995 283.12ZM900.995 284.54C899.615 284.54 898.615 285.66 898.615 287.26C898.615 288.86 899.615 289.98 900.995 289.98C902.395 289.98 903.415 288.86 903.415 287.26C903.415 285.66 902.395 284.54 900.995 284.54ZM910.255 277.48H911.855V295.56H910.255V277.48ZM907.375 285.08H910.795V286.46H907.375V285.08ZM906.395 277.88H907.955V294.68H906.395V277.88ZM900.195 278H901.835V281.4H900.195V278ZM914.953 291.88H931.333V293.26H914.953V291.88ZM922.273 287.56H923.933V292.28H922.273V287.56ZM916.873 278.76H918.513V281.98H927.733V278.76H929.373V288H916.873V278.76ZM918.513 283.32V286.64H927.733V283.32H918.513ZM940.472 283.94H943.932V285.32H940.472V283.94ZM937.092 279.18H938.392V282.62C938.392 286.4 936.812 290.06 934.172 291.68L933.132 290.42C935.612 288.96 937.092 285.72 937.092 282.62V279.18ZM937.412 279.18H938.692V282.56C938.692 285.46 940.052 288.54 942.432 289.98L941.472 291.28C938.872 289.68 937.412 286.08 937.412 282.56V279.18ZM947.112 277.48H948.712V295.56H947.112V277.48ZM943.452 277.86H945.012V294.66H943.452V277.86ZM955.75 286.78H957.39V292.2H955.75V286.78ZM962.43 286.78H964.09V292.2H962.43V286.78ZM951.75 291.88H968.13V293.26H951.75V291.88ZM959.91 278.62C963.73 278.62 966.47 280.44 966.47 283.28C966.47 286.1 963.73 287.92 959.91 287.92C956.07 287.92 953.33 286.1 953.33 283.28C953.33 280.44 956.07 278.62 959.91 278.62ZM959.91 279.94C957.01 279.94 954.93 281.26 954.93 283.28C954.93 285.28 957.01 286.6 959.91 286.6C962.81 286.6 964.87 285.28 964.87 283.28C964.87 281.26 962.81 279.94 959.91 279.94ZM972.408 289.98H971.268L970.768 279.72H972.908L972.408 289.98ZM970.588 292.92C970.588 292.427 970.708 292.08 970.948 291.88C971.188 291.68 971.482 291.58 971.828 291.58C972.162 291.58 972.448 291.68 972.688 291.88C972.942 292.08 973.068 292.427 973.068 292.92C973.068 293.4 972.942 293.747 972.688 293.96C972.448 294.173 972.162 294.28 971.828 294.28C971.482 294.28 971.188 294.173 970.948 293.96C970.708 293.747 970.588 293.4 970.588 292.92Z" fill="#5A4978"/>
<path d="M1053.58 365.568H1054.9V367.424H1053.58V365.568ZM1059.67 358.8H1061V368.496H1059.67V358.8ZM1060.44 363.168H1063.11V364.272H1060.44V363.168ZM1049.88 368.08L1049.7 366.992C1052.3 366.992 1055.82 366.992 1058.81 366.56L1058.92 367.504C1055.83 368.048 1052.41 368.064 1049.88 368.08ZM1051.5 369.216H1061V373.248H1059.67V370.272H1051.5V369.216ZM1050.07 360.096H1058.38V361.088H1050.07V360.096ZM1054.23 361.648C1056.26 361.648 1057.59 362.464 1057.59 363.792C1057.59 365.12 1056.26 365.936 1054.23 365.936C1052.18 365.936 1050.86 365.12 1050.86 363.792C1050.86 362.464 1052.18 361.648 1054.23 361.648ZM1054.23 362.56C1052.94 362.56 1052.1 363.024 1052.1 363.792C1052.1 364.528 1052.94 365.008 1054.23 365.008C1055.51 365.008 1056.34 364.528 1056.34 363.792C1056.34 363.024 1055.51 362.56 1054.23 362.56ZM1053.58 358.672H1054.9V360.576H1053.58V358.672ZM1075.03 358.8H1076.37V369.36H1075.03V358.8ZM1067.08 371.84H1076.81V372.928H1067.08V371.84ZM1067.08 368.272H1068.39V372.208H1067.08V368.272ZM1068.61 359.792C1070.77 359.792 1072.37 361.264 1072.37 363.36C1072.37 365.44 1070.77 366.928 1068.61 366.928C1066.45 366.928 1064.84 365.44 1064.84 363.36C1064.84 361.264 1066.45 359.792 1068.61 359.792ZM1068.61 360.944C1067.21 360.944 1066.13 361.936 1066.13 363.36C1066.13 364.768 1067.21 365.76 1068.61 365.76C1070.02 365.76 1071.09 364.768 1071.09 363.36C1071.09 361.936 1070.02 360.944 1068.61 360.944ZM1089.03 358.784H1090.36V373.248H1089.03V358.784ZM1090.04 364.72H1092.73V365.84H1090.04V364.72ZM1079.16 361.088H1087.69V362.176H1079.16V361.088ZM1083.48 363.376C1085.53 363.376 1087 364.752 1087 366.704C1087 368.656 1085.53 370.032 1083.48 370.032C1081.45 370.032 1079.96 368.656 1079.96 366.704C1079.96 364.752 1081.45 363.376 1083.48 363.376ZM1083.48 364.48C1082.17 364.48 1081.22 365.392 1081.22 366.704C1081.22 368 1082.17 368.928 1083.48 368.928C1084.79 368.928 1085.73 368 1085.73 366.704C1085.73 365.392 1084.79 364.48 1083.48 364.48ZM1082.79 358.96H1084.12V361.584H1082.79V358.96ZM1104.48 358.784H1105.81V373.248H1104.48V358.784ZM1100.24 360.336H1101.56C1101.56 364.528 1099.67 368.192 1094.84 370.56L1094.13 369.488C1098.31 367.472 1100.24 364.4 1100.24 360.56V360.336ZM1094.79 360.336H1100.82V361.424H1094.79V360.336Z" fill="#5A4978"/>
<mask id="mask0_2612_8321" style="mask-type:luminance" maskUnits="userSpaceOnUse" x="1118" y="358" width="16" height="16">
<path d="M1118 358H1134V374H1118V358Z" fill="white"/>
</mask>
<g mask="url(#mask0_2612_8321)">
<path d="M1125.81 358.568C1129.9 358.462 1133.3 361.695 1133.41 365.787C1133.41 365.859 1133.41 365.932 1133.41 366.004C1133.42 370.098 1130.1 373.422 1126.01 373.428C1121.91 373.433 1118.59 370.118 1118.58 366.024C1118.58 366.017 1118.58 366.01 1118.58 366.004C1118.57 361.975 1121.78 358.673 1125.81 358.568ZM1125.77 358.004C1121.44 358.129 1118 361.675 1118 366.004C1118 370.421 1121.58 374.003 1126 374.004C1130.41 374.006 1133.99 370.426 1134 366.008C1134 366.007 1134 366.006 1134 366.004C1134 361.587 1130.42 358.004 1126 358.001C1125.92 358.001 1125.85 358.003 1125.77 358.004Z" fill="#5A4978"/>
</g>
<path d="M1127.77 362.716L1127.36 363.129C1127.31 363.175 1127.31 363.249 1127.36 363.294L1129.66 365.595H1121.77C1121.71 365.595 1121.66 365.648 1121.66 365.712V366.295C1121.66 366.361 1121.71 366.413 1121.77 366.413H1129.66L1127.36 368.715C1127.31 368.76 1127.31 368.834 1127.36 368.879L1127.77 369.292C1127.82 369.338 1127.89 369.338 1127.93 369.292H1127.94L1131.14 366.087C1131.19 366.041 1131.19 365.967 1131.14 365.922L1127.94 362.716C1127.89 362.67 1127.82 362.67 1127.77 362.716Z" fill="#5A4978"/>
<path d="M207.357 287.063L230.193 282.55C230.193 282.55 214.969 311.448 222.083 327.312C229.189 343.176 224.818 366.691 224.818 366.691L246.697 373.442L244.689 366.873L244.176 364.976C242.239 357.831 242.01 350.337 243.52 343.097L258.814 269.697C259.834 264.804 256.751 259.991 251.882 258.868L240.318 256.204L213.878 261.674L207.357 287.063Z" fill="white"/>
<path d="M225.41 366.328L245.906 372.643L244.191 367.031L243.669 365.111C241.717 357.926 241.488 350.282 243.005 342.994L258.3 269.587C259.249 265.01 256.324 260.433 251.763 259.382L240.31 256.742L214.305 262.125L208.076 286.383L230.09 282.036C230.287 281.996 230.493 282.075 230.619 282.233C230.738 282.399 230.754 282.613 230.659 282.795C230.619 282.866 226.841 290.098 223.972 299.157C221.339 307.464 218.96 319.06 222.565 327.099C226.272 335.382 226.833 345.737 226.643 352.962C226.469 359.53 225.671 364.786 225.41 366.328ZM246.697 373.963C246.641 373.963 246.594 373.963 246.539 373.94L224.659 367.197C224.406 367.118 224.248 366.865 224.296 366.597C224.343 366.367 228.564 343.057 221.6 327.525C218.597 320.83 219.055 311.171 222.968 298.825C225.252 291.616 228.113 285.553 229.236 283.277L207.459 287.577C207.286 287.616 207.104 287.553 206.977 287.427C206.851 287.292 206.803 287.103 206.851 286.929L213.364 261.54C213.419 261.35 213.569 261.2 213.767 261.16L240.207 255.691C240.278 255.675 240.357 255.675 240.436 255.691L252 258.354C254.49 258.931 256.624 260.433 258 262.583C259.375 264.733 259.849 267.302 259.328 269.8L244.033 343.208C242.555 350.329 242.776 357.815 244.681 364.834L245.195 366.739L247.202 373.284C247.258 373.473 247.202 373.679 247.068 373.813C246.965 373.916 246.831 373.963 246.697 373.963Z" fill="#182946"/>
<path d="M308.501 380.002H297.016V246.956H308.501V380.002Z" fill="white"/>
<path d="M297.538 379.481H307.972V247.478H297.538V379.481ZM308.501 380.532H297.016C296.724 380.532 296.487 380.295 296.487 380.002V246.956C296.487 246.664 296.724 246.427 297.016 246.427H308.501C308.786 246.427 309.023 246.664 309.023 246.956V380.002C309.023 380.295 308.786 380.532 308.501 380.532Z" fill="#182946"/>
<path d="M378.296 381.599H228.596L302.636 369.308L378.296 381.599Z" fill="white"/>
<path d="M234.975 381.077H371.775L302.636 369.837L234.975 381.077ZM378.296 382.128H228.596C228.319 382.128 228.09 381.915 228.066 381.646C228.042 381.37 228.232 381.125 228.509 381.077L302.549 368.786C302.604 368.778 302.667 368.778 302.723 368.786L378.375 381.077C378.644 381.125 378.842 381.37 378.818 381.638C378.794 381.915 378.565 382.128 378.296 382.128Z" fill="#182946"/>
<path d="M226.778 353.594C229.766 356.416 236.398 361.64 242.318 359.024C243.203 358.637 244.239 359 244.689 359.862C248.309 366.778 255.273 373.726 262.727 375.497C264.877 376.003 266.434 377.884 266.608 380.089C266.774 382.152 265.146 383.915 263.075 383.915H245.606C242.895 383.915 240.31 382.753 238.524 380.714L229.908 370.936L228.556 383.915H223.419C223.419 383.915 217.585 362.518 223.261 353.973C224.051 352.788 225.743 352.614 226.778 353.594Z" fill="#182946"/>
<path d="M202.891 285.332L225.727 280.818C225.727 280.818 210.503 309.717 217.609 325.581C224.723 341.445 220.344 364.96 220.344 364.96L242.223 371.711L240.223 365.142L239.702 363.237C237.765 356.099 237.544 348.606 239.054 341.366L254.341 267.966C255.36 263.073 252.285 258.259 247.416 257.137L235.844 254.473L209.404 259.935L202.891 285.332Z" fill="white"/>
<path d="M220.945 364.597L241.433 370.912L239.718 365.3L239.196 363.379C237.243 356.194 237.014 348.543 238.532 341.255L253.827 267.855C254.783 263.279 251.851 258.702 247.298 257.651L235.837 255.011L209.831 260.386L203.603 284.652L225.624 280.297C225.822 280.257 226.027 280.336 226.146 280.502C226.264 280.668 226.288 280.882 226.193 281.064C226.154 281.135 222.368 288.359 219.498 297.426C216.866 305.733 214.487 317.321 218.091 325.367C221.806 333.651 222.36 344.006 222.17 351.23C222.004 357.799 221.198 363.047 220.945 364.597ZM242.223 372.232C242.176 372.232 242.12 372.224 242.073 372.209L220.194 365.466C219.933 365.387 219.783 365.126 219.83 364.865C219.87 364.628 224.091 341.318 217.127 325.794C214.131 319.091 214.59 309.44 218.502 297.086C220.779 289.885 223.64 283.822 224.77 281.538L202.986 285.846C202.812 285.877 202.63 285.822 202.504 285.688C202.377 285.561 202.33 285.371 202.377 285.198L208.899 259.809C208.946 259.611 209.104 259.469 209.302 259.421L235.734 253.952C235.813 253.936 235.892 253.936 235.963 253.96L247.527 256.623C250.025 257.2 252.151 258.702 253.526 260.852C254.91 263.002 255.376 265.571 254.854 268.069L239.567 341.477C238.081 348.598 238.303 356.076 240.208 363.103L240.729 365.008L242.729 371.553C242.784 371.742 242.737 371.94 242.595 372.082C242.5 372.177 242.366 372.232 242.223 372.232Z" fill="#182946"/>
<mask id="mask1_2612_8321" style="mask-type:luminance" maskUnits="userSpaceOnUse" x="215" y="352" width="49" height="33">
<path d="M215.072 352.076H263.636V384.958H215.072V352.076Z" fill="white"/>
</mask>
<g mask="url(#mask1_2612_8321)">
<path d="M222.13 354.416C225.118 357.238 231.75 362.455 237.662 359.846C238.556 359.451 239.591 359.822 240.042 360.684C243.662 367.6 250.625 374.548 258.079 376.319C260.229 376.825 261.786 378.706 261.96 380.911C262.126 382.974 260.498 384.737 258.427 384.737H240.958C238.247 384.737 235.663 383.567 233.876 381.536L225.26 371.758L223.901 384.737H218.771C218.771 384.737 212.938 363.34 218.613 354.795C219.403 353.602 221.087 353.436 222.13 354.416Z" fill="#182946"/>
</g>
<path d="M171.843 239.613L203.389 246.356C219.379 249.588 235.567 253.628 251.937 258.346C251.281 271.246 229.204 284.549 220.114 287.656C207.847 290.501 185.478 291.774 177.075 292.161C174.127 292.304 171.187 291.75 168.499 290.549C162.768 287.988 154.279 282.044 153.109 269.057C151.331 249.225 171.843 239.613 171.843 239.613Z" fill="#182946"/>
<path d="M218.7 187.84L200.875 180.844L210.922 155.258L228.738 162.253L218.7 187.84Z" fill="white"/>
<path d="M201.563 180.544L218.399 187.16L228.059 162.546L211.214 155.946L201.563 180.544ZM218.7 188.369C218.637 188.369 218.573 188.353 218.51 188.33L200.686 181.334C200.559 181.287 200.449 181.184 200.393 181.058C200.338 180.931 200.338 180.781 200.385 180.655L210.432 155.068C210.535 154.8 210.843 154.665 211.112 154.768L228.936 161.763C229.205 161.866 229.339 162.174 229.228 162.443L219.19 188.029C219.142 188.164 219.04 188.267 218.913 188.322C218.842 188.353 218.771 188.369 218.7 188.369Z" fill="#182946"/>
<path d="M167.653 242.348C172.499 245.581 188.062 254.331 205.12 246.711C206.946 235.961 219.229 222.777 222.075 219.188C225.521 214.841 222.739 194.108 221.632 186.836C221.387 185.231 220.518 183.793 219.213 182.828L203.555 171.296C202.986 170.877 202.18 171.067 201.848 171.699L200.196 174.884C200.196 174.884 186.339 182.536 179.96 205.055C174.854 223.069 169.052 235.424 166.934 239.645C166.452 240.601 166.76 241.763 167.653 242.348Z" fill="#A2E0DE"/>
<path d="M248.792 152.033C248.792 158.491 244.286 163.731 238.73 163.731C233.173 163.731 228.675 158.491 228.675 152.033C228.675 145.567 233.173 140.335 238.73 140.335C244.286 140.335 248.792 145.567 248.792 152.033Z" fill="#182946"/>
<path d="M241.52 161.653C244.081 154.246 244.081 147.504 243.986 147.504L209.894 141.117L205.333 159.171C205.333 159.171 205.8 168.996 219.04 177.817C221.482 179.445 224.581 179.714 227.268 178.536C231.9 176.513 235.259 173.233 237.694 169.549L240.041 170.268C241.243 170.632 242.397 169.581 242.136 168.348C241.915 167.32 241.654 166.142 241.377 165.075C241.085 163.945 241.14 162.759 241.52 161.653Z" fill="white"/>
<path d="M243.859 148.017C243.899 148.025 243.946 148.025 243.986 148.025C243.954 148.025 243.922 148.025 243.891 148.017H243.859ZM223.798 179.793C222.027 179.793 220.273 179.279 218.747 178.259C216.779 176.947 214.977 175.54 213.388 174.062C213.174 173.865 213.167 173.533 213.364 173.319C213.562 173.106 213.894 173.09 214.107 173.288C215.656 174.726 217.411 176.102 219.332 177.382C221.632 178.916 224.517 179.168 227.062 178.054C231.149 176.268 234.579 173.311 237.259 169.264C237.386 169.067 237.623 168.98 237.852 169.051L240.199 169.762C240.579 169.881 240.982 169.786 241.282 169.517C241.575 169.249 241.701 168.853 241.622 168.458C241.353 167.217 241.101 166.126 240.863 165.209C240.547 163.976 240.603 162.696 241.022 161.486C243.187 155.202 243.496 149.424 243.488 147.946L210.282 141.733L205.863 159.218C205.871 159.313 205.895 159.495 205.934 159.747C205.974 160.04 205.784 160.309 205.491 160.348C205.207 160.396 204.938 160.198 204.891 159.913C204.82 159.463 204.812 159.202 204.812 159.194C204.804 159.147 204.812 159.091 204.828 159.044L209.38 140.99C209.452 140.722 209.712 140.556 209.989 140.603L244.088 146.982C244.215 147.014 244.341 147.085 244.42 147.195C244.752 147.67 244.262 151.891 244.262 151.938C243.978 154.309 243.361 157.945 242.017 161.826C241.67 162.838 241.622 163.921 241.883 164.941C242.128 165.873 242.381 166.98 242.65 168.245C242.808 169.003 242.563 169.77 241.994 170.292C241.417 170.821 240.634 170.995 239.891 170.774L237.915 170.165C235.156 174.22 231.647 177.2 227.481 179.018C226.296 179.54 225.047 179.793 223.798 179.793Z" fill="#182946"/>
<path d="M236.611 161.787C236.413 162.309 236.674 162.894 237.196 163.099C237.709 163.297 238.294 163.036 238.5 162.514C238.697 161.993 238.437 161.408 237.915 161.21C237.393 161.012 236.808 161.273 236.611 161.787Z" fill="#182946"/>
<path d="M235.093 161.052C234.951 161.052 234.808 160.989 234.706 160.878C234.508 160.665 234.524 160.333 234.737 160.135C234.808 160.072 236.5 158.546 238.887 159.289C239.164 159.376 239.322 159.677 239.235 159.953C239.148 160.23 238.848 160.38 238.571 160.301C236.777 159.74 235.496 160.862 235.449 160.91C235.346 161.004 235.22 161.052 235.093 161.052Z" fill="#182946"/>
<path d="M232.88 175.564C232.841 175.564 232.793 175.556 232.754 175.541C231.244 175.161 229.315 174.062 228.667 171.051C228.659 171.011 228.651 170.98 228.644 170.956C228.58 170.798 228.588 170.608 228.691 170.458C228.849 170.213 229.181 170.15 229.418 170.308C229.608 170.442 229.647 170.608 229.695 170.83C230.122 172.829 231.244 174.07 233.015 174.529C233.291 174.6 233.465 174.885 233.394 175.161C233.331 175.398 233.117 175.564 232.88 175.564Z" fill="#182946"/>
<path d="M243.986 147.504C243.986 147.504 236.753 163.312 216.336 159.613C211.23 166.316 205.333 167.77 205.333 167.77C205.333 167.77 187.343 166.221 198.646 139.331C206.227 121.301 220.012 121.909 228.288 124.273C234.224 125.964 239.259 129.996 242.025 135.513C243.646 138.746 244.721 142.801 243.986 147.504Z" fill="#182946"/>
<path d="M200.33 134.675C200.33 139.054 197.16 142.595 193.256 142.595C189.343 142.595 186.173 139.054 186.173 134.675C186.173 130.296 189.343 126.747 193.256 126.747C197.16 126.747 200.33 130.296 200.33 134.675Z" fill="#182946"/>
<path d="M220.708 161.747C221.063 165.573 219.214 168.869 216.566 169.122C213.926 169.367 211.483 166.466 211.128 162.641C210.772 158.815 212.621 155.511 215.269 155.266C217.917 155.021 220.352 157.922 220.708 161.747Z" fill="white"/>
<path d="M215.325 169.533C215.277 169.533 215.23 169.525 215.182 169.517C212.803 168.853 210.922 166.047 210.606 162.696C210.424 160.736 210.78 158.839 211.61 157.353C212.479 155.811 213.767 154.879 215.222 154.744C218.052 154.475 220.676 157.36 221.19 161.313C221.221 161.597 221.024 161.866 220.731 161.905C220.447 161.937 220.178 161.739 220.146 161.447C219.704 158.064 217.585 155.582 215.317 155.788C214.218 155.89 213.23 156.633 212.534 157.866C211.799 159.171 211.491 160.846 211.649 162.593C211.926 165.526 213.491 167.952 215.459 168.498C215.744 168.577 215.91 168.869 215.831 169.146C215.767 169.383 215.554 169.533 215.325 169.533Z" fill="#182946"/>
<path d="M218.557 163.028L223.442 171.968L228.912 174.608L230.469 174.861C233.552 175.359 236.184 177.39 237.425 180.252C239.48 184.963 242.215 193.049 242.776 203.506L228.825 202.684C228.825 202.684 228.121 186.583 225.695 184.212L220.17 182.923C219.379 182.741 218.668 182.315 218.122 181.714L213.182 176.268C212.384 175.375 212.487 174.007 213.404 173.24L213.633 173.059L212.329 170.893C211.696 169.849 212.012 168.49 213.032 167.826L213.356 167.62C212.906 166.68 213.301 165.557 214.249 165.115L215.514 164.522C215.135 163.668 215.554 162.672 216.439 162.348L216.597 162.293C217.348 162.016 218.178 162.332 218.557 163.028Z" fill="white"/>
<path d="M229.331 202.194L242.215 202.945C241.599 192.978 239.022 185.239 236.943 180.465C235.765 177.754 233.315 175.857 230.382 175.383L228.833 175.13C228.778 175.122 228.73 175.106 228.683 175.082L223.213 172.442C223.118 172.387 223.039 172.316 222.984 172.221L218.099 163.289C217.838 162.815 217.285 162.601 216.779 162.783L216.613 162.846C216.329 162.949 216.107 163.162 215.989 163.439C215.87 163.724 215.87 164.032 215.997 164.309C216.115 164.569 215.997 164.878 215.736 164.996L214.471 165.589C214.139 165.747 213.894 166.016 213.775 166.356C213.657 166.696 213.673 167.067 213.831 167.391C213.949 167.628 213.862 167.913 213.641 168.063L213.325 168.269C212.534 168.782 212.289 169.818 212.78 170.624L214.084 172.79C214.218 173.011 214.163 173.296 213.965 173.462L213.744 173.651C213.404 173.928 213.206 174.315 213.175 174.742C213.143 175.177 213.285 175.588 213.578 175.912L218.51 181.358C218.984 181.888 219.601 182.251 220.289 182.41L225.814 183.698C225.909 183.722 225.996 183.769 226.059 183.832C228.406 186.125 229.181 199.159 229.331 202.194ZM242.777 204.036C242.761 204.036 242.753 204.036 242.745 204.036L228.794 203.214C228.525 203.198 228.312 202.977 228.296 202.708C228.106 198.36 227.229 186.804 225.419 184.686L220.052 183.437C219.15 183.224 218.352 182.757 217.728 182.07L212.795 176.616C212.313 176.086 212.076 175.39 212.123 174.671C212.171 174.007 212.463 173.399 212.945 172.948L211.878 171.162C211.104 169.881 211.475 168.237 212.716 167.407C212.598 166.949 212.621 166.466 212.78 166.008C213.001 165.399 213.436 164.909 214.02 164.641L214.882 164.237C214.811 163.834 214.858 163.415 215.016 163.028C215.246 162.483 215.704 162.056 216.257 161.858L216.416 161.795C217.419 161.431 218.51 161.85 219.024 162.783L223.83 171.565L229.078 174.102L230.548 174.339C233.837 174.877 236.587 177.011 237.907 180.046C240.065 184.994 242.745 193.072 243.298 203.482C243.306 203.633 243.251 203.775 243.14 203.878C243.045 203.98 242.911 204.036 242.777 204.036Z" fill="#182946"/>
<path d="M223.11 176.165C222.976 176.165 222.842 176.118 222.739 176.015L219.198 172.521C219.158 172.482 219.127 172.442 219.103 172.395L214.969 164.546C214.835 164.285 214.929 163.969 215.19 163.834C215.451 163.692 215.767 163.795 215.902 164.048L219.996 171.833L223.482 175.264C223.687 175.469 223.687 175.801 223.482 176.015C223.379 176.118 223.245 176.165 223.11 176.165Z" fill="#182946"/>
<path d="M220.502 177.928C220.36 177.928 220.218 177.872 220.115 177.762L216.226 173.604C216.194 173.572 216.171 173.533 216.147 173.501L212.74 167.391C212.598 167.138 212.693 166.814 212.946 166.672C213.199 166.53 213.523 166.625 213.665 166.877L217.04 172.932L220.882 177.042C221.079 177.256 221.071 177.588 220.858 177.785C220.755 177.88 220.629 177.928 220.502 177.928Z" fill="#182946"/>
<path d="M217.949 179.113C217.791 179.113 217.633 179.042 217.53 178.908L212.993 173.011C212.811 172.782 212.859 172.45 213.088 172.268C213.317 172.094 213.649 172.134 213.823 172.371L218.36 178.268C218.542 178.497 218.495 178.829 218.265 179.011C218.17 179.082 218.06 179.113 217.949 179.113Z" fill="#182946"/>
<path d="M190.71 201.451C197.334 214.28 209.934 235.945 221.846 242.474C226.019 244.759 231.236 243.549 234.003 239.684C242.634 227.63 245.306 205.506 245.867 201.182C245.938 200.668 245.756 200.155 245.393 199.783C243.717 198.115 238.255 193.681 227.371 193.554C226.43 193.547 225.624 194.242 225.49 195.175L222.992 212.035L212.519 190.519C209.396 184.101 201.452 181.722 195.319 185.366C189.77 188.67 187.746 195.712 190.71 201.451Z" fill="#A2E0DE"/>
<path d="M210.93 233.472C210.788 233.472 210.638 233.408 210.535 233.29C203.713 225.401 197.414 214.896 193.327 207.482C193.193 207.229 193.28 206.905 193.54 206.771C193.793 206.628 194.11 206.723 194.252 206.976C198.307 214.351 204.567 224.777 211.333 232.602C211.523 232.816 211.499 233.155 211.278 233.345C211.175 233.424 211.056 233.472 210.93 233.472Z" fill="#182946"/>
<path d="M222.991 212.557C222.786 212.557 222.604 212.446 222.517 212.264L213.032 192.772C212.906 192.511 213.008 192.195 213.277 192.069C213.538 191.942 213.846 192.045 213.981 192.306L222.715 210.272L224.968 195.096C225.047 194.543 225.323 194.029 225.734 193.649C225.956 193.46 226.288 193.476 226.485 193.689C226.675 193.902 226.659 194.234 226.446 194.432C226.209 194.645 226.05 194.938 226.011 195.254L223.513 212.106C223.474 212.335 223.3 212.517 223.071 212.557C223.039 212.557 223.015 212.557 222.991 212.557Z" fill="#182946"/>
<path d="M222.446 221.267C222.415 221.267 222.383 221.259 222.359 221.259C222.067 221.212 221.877 220.935 221.924 220.651C222.233 218.769 222.944 213.592 222.486 212.193C222.407 211.932 222.533 211.656 222.786 211.545C223.039 211.442 223.331 211.553 223.458 211.798L226.145 217.078C226.28 217.339 226.177 217.655 225.916 217.789C225.655 217.916 225.339 217.813 225.213 217.56L223.671 214.525C223.569 217.086 223.047 220.327 222.96 220.825C222.92 221.085 222.699 221.267 222.446 221.267Z" fill="#182946"/>
<path d="M423.715 381.599H419.059V296.817H423.715V381.599Z" fill="white"/>
<path d="M419.589 381.077H423.185V297.339H419.589V381.077ZM423.715 382.129H419.059C418.775 382.129 418.538 381.891 418.538 381.599V296.817C418.538 296.524 418.775 296.287 419.059 296.287H423.715C424 296.287 424.237 296.524 424.237 296.817V381.599C424.237 381.891 424 382.129 423.715 382.129Z" fill="#182946"/>
<path d="M446.946 299.117H395.828C393.939 299.117 392.406 297.584 392.406 295.702C392.406 293.813 393.939 292.28 395.828 292.28H446.946C448.835 292.28 450.368 293.813 450.368 295.702C450.368 297.584 448.835 299.117 446.946 299.117Z" fill="white"/>
<path d="M395.828 292.809C394.231 292.809 392.935 294.106 392.935 295.702C392.935 297.291 394.231 298.595 395.828 298.595H446.945C448.542 298.595 449.838 297.291 449.838 295.702C449.838 294.106 448.542 292.809 446.945 292.809H395.828ZM446.945 299.647H395.828C393.654 299.647 391.884 297.876 391.884 295.702C391.884 293.521 393.654 291.75 395.828 291.75H446.945C449.119 291.75 450.89 293.521 450.89 295.702C450.89 297.876 449.119 299.647 446.945 299.647Z" fill="#182946"/>
<path d="M452.471 382.555H390.303L421.051 377.449L452.471 382.555Z" fill="white"/>
<mask id="mask2_2612_8321" style="mask-type:luminance" maskUnits="userSpaceOnUse" x="389" y="376" width="64" height="8">
<path d="M389.71 376.817H453V383.117H389.71V376.817Z" fill="white"/>
</mask>
<g mask="url(#mask2_2612_8321)">
<path d="M396.681 382.033H445.957L421.05 377.986L396.681 382.033ZM452.47 383.085H390.303C390.026 383.085 389.797 382.871 389.773 382.602C389.749 382.326 389.939 382.081 390.216 382.033L420.964 376.935C421.019 376.919 421.082 376.919 421.137 376.935L452.557 382.033C452.826 382.081 453.024 382.326 453 382.602C452.976 382.871 452.747 383.085 452.47 383.085Z" fill="#182946"/>
</g>
<path d="M189.477 381.599H184.822V296.817H189.477V381.599Z" fill="white"/>
<path d="M185.351 381.077H188.948V297.339H185.351V381.077ZM189.477 382.129H184.822C184.537 382.129 184.3 381.891 184.3 381.599V296.817C184.3 296.524 184.537 296.287 184.822 296.287H189.477C189.762 296.287 189.999 296.524 189.999 296.817V381.599C189.999 381.891 189.762 382.129 189.477 382.129Z" fill="#182946"/>
<path d="M212.708 299.117H161.591C159.702 299.117 158.168 297.584 158.168 295.702C158.168 293.813 159.702 292.28 161.591 292.28H212.708C214.597 292.28 216.131 293.813 216.131 295.702C216.131 297.584 214.597 299.117 212.708 299.117Z" fill="white"/>
<path d="M161.591 292.809C159.994 292.809 158.698 294.106 158.698 295.702C158.698 297.291 159.994 298.595 161.591 298.595H212.708C214.305 298.595 215.601 297.291 215.601 295.702C215.601 294.106 214.305 292.809 212.708 292.809H161.591ZM212.708 299.647H161.591C159.417 299.647 157.646 297.876 157.646 295.702C157.646 293.521 159.417 291.75 161.591 291.75H212.708C214.882 291.75 216.652 293.521 216.652 295.702C216.652 297.876 214.882 299.647 212.708 299.647Z" fill="#182946"/>
<path d="M218.233 382.555H156.066L186.814 377.449L218.233 382.555Z" fill="white"/>
<path d="M162.444 382.034H211.72L186.813 377.987L162.444 382.034ZM218.241 383.085H156.066C155.789 383.085 155.56 382.872 155.536 382.603C155.512 382.326 155.702 382.081 155.979 382.034L186.726 376.935C186.782 376.92 186.845 376.92 186.9 376.935L218.32 382.034C218.589 382.081 218.787 382.326 218.763 382.603C218.739 382.872 218.51 383.085 218.241 383.085Z" fill="#182946"/>
<path d="M381.016 250.379H224.494C222.605 250.379 221.079 248.845 221.079 246.956C221.079 245.067 222.605 243.534 224.494 243.534H381.016C382.905 243.534 384.438 245.067 384.438 246.956C384.438 248.845 382.905 250.379 381.016 250.379Z" fill="white"/>
<path d="M224.493 244.063C222.897 244.063 221.6 245.36 221.6 246.956C221.6 248.553 222.897 249.849 224.493 249.849H381.015C382.612 249.849 383.908 248.553 383.908 246.956C383.908 245.36 382.612 244.063 381.015 244.063H224.493ZM381.015 250.901H224.493C222.32 250.901 220.549 249.13 220.549 246.956C220.549 244.783 222.32 243.012 224.493 243.012H381.015C383.189 243.012 384.959 244.783 384.959 246.956C384.959 249.13 383.189 250.901 381.015 250.901Z" fill="#182946"/>
<path d="M249.582 234.847C249.274 234.523 249.092 234.088 249.092 233.598C249.092 232.61 249.875 231.812 250.847 231.812C251.329 231.812 251.764 232.009 252.088 232.333C252.396 232.642 252.586 233.076 252.602 233.551L253.858 236.546C253.858 236.546 250.57 236.017 249.582 234.847ZM254.261 233.985C254.238 233.092 253.874 232.294 253.297 231.701C252.704 231.092 251.882 230.721 250.973 230.721C249.155 230.721 247.685 232.223 247.685 234.08C247.685 234.989 248.033 235.811 248.61 236.42C250.452 238.609 256.633 239.613 256.633 239.613L254.261 233.985Z" fill="#A2E0DE"/>
<path d="M262.324 242.893C257.818 242.893 254.166 239.242 254.166 234.728V228.033H270.489V234.728C270.489 239.242 266.837 242.893 262.324 242.893Z" fill="#A2E0DE"/>
<path d="M331.582 236.673L332.847 233.677C332.862 233.195 333.052 232.768 333.36 232.46C333.677 232.128 334.119 231.93 334.601 231.93C335.574 231.93 336.356 232.736 336.356 233.724C336.356 234.207 336.166 234.649 335.866 234.973C334.878 236.135 331.582 236.673 331.582 236.673ZM328.815 239.732C328.815 239.732 334.989 238.728 336.838 236.546V236.538C337.407 235.938 337.763 235.116 337.763 234.207C337.763 232.349 336.293 230.847 334.475 230.847C333.566 230.847 332.744 231.219 332.143 231.827C331.566 232.412 331.21 233.218 331.187 234.112L328.815 239.732Z" fill="#A2E0DE"/>
<path d="M323.116 243.012C327.622 243.012 331.281 239.36 331.281 234.855V228.152H314.959V234.855C314.959 239.36 318.611 243.012 323.116 243.012Z" fill="#A2E0DE"/>
<path d="M391.331 147.78L405.55 167.85L393.322 185.824L374.905 162.087L391.331 147.78Z" fill="white"/>
<path d="M375.633 162.159L393.291 184.931L404.91 167.858L391.236 148.555L375.633 162.159ZM393.323 186.354C393.157 186.354 393.007 186.275 392.904 186.148L374.495 162.411C374.321 162.19 374.352 161.874 374.566 161.692L390.983 147.385C391.102 147.283 391.244 147.235 391.394 147.259C391.544 147.275 391.679 147.354 391.758 147.472L405.978 167.549C406.112 167.723 406.112 167.968 405.985 168.15L393.757 186.124C393.663 186.267 393.505 186.346 393.339 186.354C393.331 186.354 393.323 186.354 393.323 186.354Z" fill="#182946"/>
<path d="M340.593 347.729L338.909 363.838L348.924 370.58L359.966 370.145L362.938 350.598L340.593 347.729Z" fill="white"/>
<path d="M339.462 363.577L349.082 370.051L359.508 369.64L362.337 351.049L341.059 348.322L339.462 363.577ZM348.924 371.11C348.821 371.11 348.718 371.078 348.631 371.023L338.609 364.281C338.45 364.17 338.363 363.98 338.379 363.783L340.071 347.674C340.087 347.531 340.158 347.405 340.268 347.318C340.379 347.231 340.521 347.191 340.656 347.207L363.001 350.077C363.144 350.092 363.27 350.171 363.357 350.282C363.444 350.393 363.476 350.535 363.46 350.677L360.48 370.225C360.44 370.478 360.235 370.667 359.982 370.675L348.947 371.11C348.939 371.11 348.932 371.11 348.924 371.11Z" fill="#182946"/>
<path d="M306.058 381.868C306.058 381.868 304.185 370.28 323.282 369.173C332.206 366.549 336.134 363.079 337.668 361.269C338.174 360.668 339.075 360.581 339.676 361.087C342.521 363.466 350.402 368.873 360.369 365.956C361.207 365.711 362.116 365.933 362.725 366.565C367.341 371.347 365.981 381.18 365.981 381.18L306.058 381.868Z" fill="#A2E0DE"/>
<mask id="mask3_2612_8321" style="mask-type:luminance" maskUnits="userSpaceOnUse" x="303" y="380" width="67" height="5">
<path d="M303.545 380.927H369.301V384.958H303.545V380.927Z" fill="white"/>
</mask>
<g mask="url(#mask3_2612_8321)">
<path d="M367.333 384.792L305.56 384.958C304.509 384.958 303.655 384.105 303.647 383.053C303.647 381.994 304.501 381.14 305.552 381.133L367.317 380.967C368.376 380.967 369.23 381.82 369.238 382.872C369.238 383.931 368.384 384.784 367.333 384.792Z" fill="#182946"/>
</g>
<path d="M333.581 379.686C333.368 379.686 333.17 379.56 333.091 379.354C330.175 372.066 325.195 370.881 325.139 370.873C324.863 370.81 324.681 370.525 324.744 370.24C324.808 369.956 325.084 369.782 325.369 369.845C325.598 369.893 330.949 371.165 334.063 378.959C334.174 379.236 334.04 379.536 333.771 379.647C333.708 379.67 333.645 379.686 333.581 379.686Z" fill="#182946"/>
<path d="M333.953 371.782C333.85 371.782 333.74 371.75 333.653 371.687L329.693 368.928C329.455 368.762 329.392 368.438 329.566 368.201C329.724 367.956 330.056 367.901 330.293 368.067L334.253 370.825C334.49 370.991 334.546 371.315 334.388 371.552C334.285 371.703 334.119 371.782 333.953 371.782Z" fill="#182946"/>
<path d="M336.182 370.066C336.079 370.066 335.977 370.035 335.882 369.972L331.929 367.213C331.692 367.047 331.629 366.715 331.795 366.478C331.961 366.241 332.293 366.185 332.53 366.351L336.49 369.102C336.727 369.268 336.783 369.6 336.617 369.837C336.514 369.987 336.356 370.066 336.182 370.066Z" fill="#182946"/>
<path d="M338.419 368.604C338.316 368.604 338.214 368.581 338.119 368.509L334.159 365.759C333.922 365.593 333.866 365.269 334.032 365.024C334.198 364.786 334.522 364.731 334.767 364.897L338.72 367.648C338.965 367.814 339.02 368.146 338.854 368.383C338.751 368.533 338.585 368.604 338.419 368.604Z" fill="#182946"/>
<path d="M450.882 259.089C449.08 251.24 447.404 244.253 446.456 241.052L403.954 253.019L405.037 256.845C405.408 258.149 404.42 259.429 403.069 259.406C388.707 259.137 369.736 259.674 353.295 260.994C345.525 261.619 339.423 267.919 339.083 275.712L335.526 359.032C335.502 359.688 336.024 360.241 336.688 360.249L362.188 360.51C362.78 360.518 363.278 360.083 363.365 359.498L372.511 293.26L423.723 292.73C441.539 292.96 454.866 276.447 450.882 259.089Z" fill="#182946"/>
<path d="M403.527 162.538C403.527 162.538 425.532 167.644 436.006 203.775C446.479 239.914 447.506 241.581 447.506 241.581C447.506 241.581 405.06 256.457 404.807 255.62C404.546 254.782 395.369 227.472 393.796 216.454C392.231 205.427 389.378 180.75 389.378 180.75L403.527 162.538Z" fill="#A2E0DE"/>
<path d="M400.523 159.408L406.128 163.463L393.299 182.876C392.2 184.544 389.671 184.291 388.92 182.433L386.074 179.026L400.523 159.408Z" fill="#A2E0DE"/>
<path d="M404.333 258.007L449.293 245.739L447.515 239.218L402.555 251.485L404.333 258.007Z" fill="white"/>
<path d="M403.203 251.849L404.705 257.358L448.645 245.368L447.143 239.866L403.203 251.849ZM404.334 258.536C404.247 258.536 404.16 258.513 404.081 258.465C403.954 258.394 403.867 258.275 403.828 258.149L402.049 251.62C401.978 251.343 402.136 251.051 402.421 250.972L447.373 238.712C447.649 238.633 447.942 238.799 448.021 239.076L449.799 245.605C449.831 245.739 449.815 245.881 449.752 246C449.681 246.118 449.562 246.213 449.428 246.245L404.476 258.513C404.428 258.528 404.381 258.536 404.334 258.536Z" fill="#182946"/>
<path d="M437.413 250.679L441.705 249.509L439.041 239.755L434.749 240.925L437.413 250.679Z" fill="#182946"/>
<path d="M417.984 255.983L422.276 254.813L419.612 245.059L415.328 246.229L417.984 255.983Z" fill="#182946"/>
<path d="M435.959 271.634C435.943 271.634 435.927 271.634 435.919 271.634C422.474 270.48 414.625 261.176 414.546 261.081C414.364 260.86 414.396 260.528 414.617 260.346C414.838 260.157 415.17 260.188 415.36 260.41C415.431 260.504 423.019 269.468 436.006 270.582C436.299 270.614 436.512 270.867 436.48 271.152C436.465 271.428 436.227 271.634 435.959 271.634Z" fill="white"/>
<path d="M354.472 155.795L355.61 153.274C356.654 150.966 356.986 148.397 356.598 145.899C355.349 137.9 355.318 131.6 355.318 131.6L390.389 129.126L394.721 156.949C394.721 156.949 389.156 166.277 380.169 172.118C374.636 175.706 367.214 173.967 363.815 168.316C362.068 165.407 360.677 162.111 359.57 158.72L356.203 158.633C355.168 158.609 354.306 157.779 354.274 156.704C354.267 156.388 354.346 156.08 354.472 155.795Z" fill="white"/>
<path d="M373.877 174.521C372.96 174.521 372.028 174.418 371.103 174.205C367.838 173.446 365.096 171.454 363.364 168.585C361.776 165.945 360.377 162.807 359.191 159.234L356.195 159.163C354.859 159.123 353.792 158.056 353.753 156.72C353.737 156.341 353.824 155.961 353.99 155.582L355.128 153.061C356.132 150.847 356.456 148.397 356.077 145.978C354.836 138.034 354.796 131.671 354.796 131.608C354.788 131.331 355.002 131.102 355.278 131.079L390.35 128.604C390.627 128.581 390.864 128.778 390.903 129.047L395.243 156.87C395.29 157.155 395.093 157.424 394.8 157.471C394.516 157.511 394.247 157.313 394.207 157.029L389.939 129.687L355.855 132.098C355.887 133.726 356.085 139.212 357.12 145.812C357.531 148.436 357.175 151.092 356.085 153.487L354.954 156.009C354.852 156.246 354.796 156.475 354.804 156.689C354.828 157.463 355.444 158.088 356.219 158.103L359.586 158.19C359.808 158.198 360.005 158.341 360.076 158.554C361.254 162.19 362.669 165.383 364.266 168.039C365.846 170.663 368.36 172.489 371.34 173.177C374.304 173.857 377.339 173.327 379.885 171.675C382.05 170.268 384.208 168.521 386.295 166.498C386.501 166.292 386.84 166.3 387.038 166.506C387.244 166.711 387.236 167.051 387.03 167.249C384.896 169.328 382.683 171.114 380.454 172.561C378.462 173.849 376.193 174.521 373.877 174.521Z" fill="#182946"/>
<path d="M376.478 148.634L372.874 148.887C371.783 148.966 370.779 148.278 370.463 147.227L368.305 140.097C368.044 139.228 367.238 138.643 366.329 138.667L355.737 138.951C355.737 138.951 348.615 135.916 349.556 128.921C350.496 121.925 352.82 116.495 367.341 117.428C379.584 114.827 383.624 116.574 383.624 116.574C383.624 116.574 401.053 114.819 400.325 130.154C399.598 145.496 397.44 139.473 397.907 145.994C398.254 150.982 398.081 155.345 397.978 157.123C397.946 157.621 397.598 158.048 397.108 158.167L389.41 160.111C388.05 160.459 386.603 160.016 385.671 158.965L376.478 148.634Z" fill="#182946"/>
<path d="M360.583 148.041C360.409 148.784 360.867 149.527 361.602 149.701C362.345 149.875 363.088 149.425 363.262 148.682C363.436 147.946 362.986 147.203 362.243 147.022C361.508 146.848 360.765 147.306 360.583 148.041Z" fill="#182946"/>
<path d="M364.424 147.298C364.29 147.298 364.156 147.251 364.053 147.148C362.251 145.354 360.243 145.733 360.219 145.741C359.935 145.796 359.658 145.607 359.603 145.322C359.547 145.038 359.729 144.761 360.014 144.706C360.116 144.682 362.598 144.216 364.796 146.405C365.001 146.611 365.001 146.943 364.796 147.148C364.693 147.251 364.559 147.298 364.424 147.298Z" fill="#182946"/>
<path d="M361.658 164.688C361.389 164.688 361.16 164.482 361.136 164.214C361.112 163.921 361.326 163.668 361.61 163.645C367.357 163.115 368.29 159.408 368.297 159.376C368.361 159.092 368.645 158.918 368.93 158.981C369.214 159.052 369.388 159.329 369.325 159.613C369.278 159.795 368.195 164.095 361.705 164.688C361.689 164.688 361.674 164.688 361.658 164.688Z" fill="#182946"/>
<path d="M357.303 143.425C357.287 143.425 357.279 143.425 357.271 143.425C356.765 143.52 356.204 145.757 356.821 149.132C357.105 150.666 357.564 152.073 358.117 153.077C358.639 154.041 359.089 154.341 359.271 154.302C359.445 154.27 359.761 153.827 359.911 152.752C360.069 151.614 360.006 150.136 359.721 148.603C359.437 147.061 358.978 145.662 358.425 144.65C357.927 143.741 357.492 143.425 357.303 143.425ZM359.239 155.361C358.702 155.361 357.967 155.013 357.192 153.582C356.583 152.484 356.085 150.966 355.785 149.322C355.2 146.105 355.453 142.69 357.081 142.39C357.627 142.295 358.457 142.516 359.35 144.145C359.959 145.251 360.457 146.761 360.757 148.405C361.057 150.057 361.128 151.646 360.955 152.895C360.702 154.736 359.998 155.242 359.461 155.337C359.389 155.353 359.318 155.361 359.239 155.361Z" fill="#182946"/>
<path d="M372.194 151.148C372.186 155.092 374.273 158.293 376.866 158.301C379.458 158.309 381.569 155.124 381.585 151.179C381.593 147.243 379.506 144.042 376.913 144.026C374.321 144.018 372.21 147.211 372.194 151.148Z" fill="white"/>
<path d="M377 158.823C376.723 158.823 376.486 158.601 376.478 158.325C376.463 158.032 376.692 157.787 376.984 157.771C379.213 157.685 381.047 154.728 381.055 151.179C381.071 147.535 379.205 144.563 376.913 144.555C376.905 144.555 376.905 144.555 376.905 144.555C374.724 144.555 372.85 147.361 372.732 150.824C372.724 151.108 372.487 151.337 372.202 151.337C372.202 151.337 372.194 151.337 372.186 151.329C371.894 151.322 371.665 151.077 371.68 150.792C371.815 146.698 374.115 143.504 376.905 143.504H376.913C379.79 143.512 382.122 146.958 382.106 151.187C382.098 155.353 379.861 158.712 377.024 158.823C377.016 158.823 377.008 158.823 377 158.823Z" fill="#182946"/>
<path d="M359.302 145.789C359.018 145.789 358.78 145.559 358.78 145.267C358.773 144.982 359.01 144.737 359.302 144.737L374.392 144.611C374.684 144.611 374.913 144.84 374.921 145.133C374.921 145.425 374.692 145.662 374.399 145.662L359.31 145.789H359.302Z" fill="#182946"/>
<path d="M331.574 202.36C331.439 202.313 321.298 205.751 321.298 205.751L319.259 214.224C318.982 215.371 319.781 216.493 320.95 216.619C321.828 216.714 322.666 216.2 322.982 215.371L326.065 207.253L331.021 207.506L331.574 202.36Z" fill="white"/>
<path d="M321.741 206.162L319.773 214.343C319.678 214.746 319.757 215.165 319.994 215.497C320.231 215.837 320.595 216.05 321.006 216.098C321.646 216.161 322.263 215.789 322.484 215.181L325.567 207.063C325.654 206.85 325.867 206.723 326.088 206.731L330.547 206.952L330.965 203.079C329.274 203.625 324.903 205.087 321.741 206.162ZM321.156 217.157C321.069 217.157 320.982 217.149 320.895 217.141C320.184 217.062 319.544 216.691 319.133 216.106C318.722 215.521 318.579 214.794 318.745 214.098L320.785 205.632C320.832 205.459 320.959 205.316 321.132 205.253C331.44 201.759 331.519 201.783 331.74 201.862C331.977 201.941 332.119 202.17 332.096 202.415L331.542 207.561C331.511 207.838 331.266 208.043 330.989 208.027L326.42 207.798L323.472 215.56C323.101 216.525 322.176 217.157 321.156 217.157Z" fill="#182946"/>
<path d="M329.163 202.89C329.028 202.842 318.887 206.28 318.887 206.28L316.848 214.754C316.571 215.9 317.369 217.022 318.539 217.149C319.417 217.244 320.254 216.73 320.571 215.9L323.653 207.782L328.609 208.035L329.163 202.89Z" fill="white"/>
<path d="M319.33 206.692L317.362 214.873C317.267 215.276 317.346 215.695 317.583 216.027C317.82 216.366 318.184 216.58 318.595 216.627C319.235 216.691 319.844 216.319 320.073 215.718L323.156 207.593C323.243 207.379 323.456 207.253 323.677 207.261L328.135 207.482L328.554 203.609C326.863 204.146 322.5 205.617 319.33 206.692ZM318.745 217.686C318.658 217.686 318.571 217.679 318.484 217.671C317.773 217.592 317.133 217.22 316.721 216.635C316.31 216.05 316.176 215.323 316.334 214.627L318.374 206.162C318.421 205.988 318.547 205.846 318.721 205.783C329.029 202.289 329.1 202.313 329.329 202.392C329.566 202.471 329.708 202.7 329.685 202.945L329.131 208.091C329.1 208.367 328.855 208.573 328.578 208.557L324.009 208.328L321.061 216.09C320.689 217.054 319.765 217.686 318.745 217.686Z" fill="#182946"/>
<path d="M335.732 209.158C335.368 209.513 331.408 213.181 329.448 214.983C328.815 215.568 327.867 215.639 327.155 215.149C326.389 214.62 326.136 213.6 326.578 212.778L331.321 203.791L335.732 209.158Z" fill="white"/>
<path d="M331.416 204.731L327.037 213.023C326.728 213.608 326.91 214.335 327.456 214.714C327.961 215.07 328.641 215.023 329.092 214.596C332.127 211.798 334.206 209.869 335.012 209.11L331.416 204.731ZM328.206 216.003C327.74 216.003 327.266 215.869 326.855 215.584C325.875 214.904 325.551 213.592 326.112 212.533L330.854 203.546C330.941 203.388 331.092 203.285 331.273 203.261C331.447 203.245 331.621 203.316 331.732 203.451L336.142 208.826C336.316 209.039 336.293 209.347 336.103 209.537C335.739 209.885 332.001 213.347 329.811 215.371C329.353 215.789 328.783 216.003 328.206 216.003Z" fill="#182946"/>
<path d="M349.801 207.869L335.518 200.044C334.332 199.396 332.933 199.254 331.637 199.649L319.14 203.49C318.516 203.688 317.963 204.052 317.536 204.55L310.564 212.857C309.789 213.782 309.995 215.173 310.999 215.837C311.734 216.319 312.69 216.272 313.378 215.718L321.488 209.158L328.365 207.648C328.365 207.648 330.617 211.577 333.613 212.106L348.963 224.271L349.801 207.869Z" fill="white"/>
<path d="M328.365 207.126C328.554 207.126 328.728 207.221 328.823 207.387C328.847 207.427 330.989 211.11 333.708 211.584C333.795 211.6 333.874 211.64 333.945 211.695L348.489 223.227L349.256 208.177L335.265 200.51C334.206 199.933 332.941 199.799 331.795 200.155L319.29 203.996C318.761 204.162 318.295 204.47 317.947 204.889L310.967 213.197C310.698 213.521 310.572 213.948 310.635 214.367C310.698 214.786 310.936 215.165 311.291 215.394C311.829 215.758 312.54 215.718 313.046 215.307L321.156 208.754C321.219 208.699 321.298 208.66 321.377 208.644L328.254 207.134C328.294 207.126 328.333 207.126 328.365 207.126ZM348.963 224.8C348.845 224.8 348.726 224.761 348.631 224.69L333.392 212.596C330.752 212.051 328.744 209.229 328.112 208.241L321.725 209.648L313.71 216.129C312.841 216.825 311.639 216.888 310.706 216.272C310.106 215.876 309.695 215.236 309.592 214.517C309.489 213.797 309.695 213.07 310.161 212.517L317.14 204.217C317.623 203.632 318.263 203.214 318.982 202.992L331.487 199.151C332.902 198.708 334.467 198.874 335.771 199.585L350.054 207.411C350.228 207.506 350.331 207.695 350.323 207.901L349.485 224.302C349.477 224.5 349.359 224.674 349.177 224.753C349.106 224.784 349.035 224.8 348.963 224.8Z" fill="#182946"/>
<path d="M417.628 197.167L385.339 237.052C381.071 242.324 373.775 244.056 367.586 241.257L334.309 226.2C333.139 225.67 332.459 224.437 332.625 223.156C333.044 219.955 335.178 213.64 344.466 206.012C345.343 205.285 346.576 205.15 347.596 205.656C357.397 210.502 371.183 214.62 371.183 214.62L394.793 180.141C399.599 173.122 409.447 171.849 415.882 177.43C421.691 182.457 422.466 191.191 417.628 197.167Z" fill="#A2E0DE"/>
<path d="M390.311 231.44C390.192 231.44 390.074 231.401 389.979 231.322C389.749 231.14 389.718 230.808 389.9 230.579L416.142 198.163C416.324 197.941 416.656 197.902 416.885 198.084C417.106 198.266 417.146 198.598 416.964 198.827L390.722 231.243C390.619 231.369 390.461 231.44 390.311 231.44Z" fill="#182946"/>
<path d="M387.149 191.824C387.054 191.824 386.944 191.792 386.857 191.729C386.62 191.563 386.556 191.239 386.722 190.994L394.358 179.849C394.405 179.769 394.461 179.698 394.508 179.627C394.682 179.39 395.006 179.335 395.243 179.501C395.48 179.667 395.536 179.999 395.37 180.236C395.322 180.307 395.275 180.37 395.227 180.441L387.592 191.594C387.489 191.745 387.323 191.824 387.149 191.824Z" fill="#182946"/>
<path d="M374.257 218.414C374.123 218.414 373.981 218.358 373.878 218.248L371.333 215.552L370.684 216.967C370.566 217.228 370.25 217.347 369.989 217.228C369.72 217.102 369.609 216.793 369.728 216.525L370.7 214.398C370.771 214.24 370.922 214.13 371.095 214.098C371.261 214.074 371.443 214.13 371.562 214.264L374.644 217.528C374.842 217.742 374.834 218.074 374.621 218.271C374.518 218.366 374.392 218.414 374.257 218.414Z" fill="#182946"/>
<path d="M370.344 273.681H367.815C367.523 273.681 367.285 273.444 367.285 273.159C367.285 272.867 367.523 272.63 367.815 272.63H370.344C370.629 272.63 370.866 272.867 370.866 273.159C370.866 273.444 370.629 273.681 370.344 273.681ZM375.395 273.681H372.866C372.581 273.681 372.344 273.444 372.344 273.159C372.344 272.867 372.581 272.63 372.866 272.63H375.395C375.688 272.63 375.917 272.867 375.917 273.159C375.917 273.444 375.688 273.681 375.395 273.681ZM380.446 273.681H377.917C377.632 273.681 377.395 273.444 377.395 273.159C377.395 272.867 377.632 272.63 377.917 272.63H380.446C380.739 272.63 380.968 272.867 380.968 273.159C380.968 273.444 380.739 273.681 380.446 273.681ZM385.497 273.681H382.976C382.683 273.681 382.446 273.444 382.446 273.159C382.446 272.867 382.683 272.63 382.976 272.63H385.497C385.789 272.63 386.027 272.867 386.027 273.159C386.027 273.444 385.789 273.681 385.497 273.681ZM390.548 273.681H388.026C387.734 273.681 387.497 273.444 387.497 273.159C387.497 272.867 387.734 272.63 388.026 272.63H390.548C390.84 272.63 391.077 272.867 391.077 273.159C391.077 273.444 390.84 273.681 390.548 273.681ZM395.599 273.681H393.077C392.785 273.681 392.548 273.444 392.548 273.159C392.548 272.867 392.785 272.63 393.077 272.63H395.599C395.891 272.63 396.128 272.867 396.128 273.159C396.128 273.444 395.891 273.681 395.599 273.681ZM400.658 273.681H398.128C397.836 273.681 397.599 273.444 397.599 273.159C397.599 272.867 397.836 272.63 398.128 272.63H400.658C400.942 272.63 401.179 272.867 401.179 273.159C401.179 273.444 400.942 273.681 400.658 273.681ZM405.708 273.681H403.179C402.887 273.681 402.649 273.444 402.649 273.159C402.649 272.867 402.887 272.63 403.179 272.63H405.708C406.001 272.63 406.23 272.867 406.23 273.159C406.23 273.444 406.001 273.681 405.708 273.681ZM410.759 273.681H408.23C407.945 273.681 407.708 273.444 407.708 273.159C407.708 272.867 407.945 272.63 408.23 272.63H410.759C411.052 272.63 411.281 272.867 411.281 273.159C411.281 273.444 411.052 273.681 410.759 273.681ZM414.949 273.681H413.281C412.996 273.681 412.759 273.444 412.759 273.159C412.759 272.867 412.996 272.63 413.281 272.63H414.949C415.241 272.63 415.478 272.867 415.478 273.159C415.478 273.444 415.241 273.681 414.949 273.681ZM362.867 274.558C362.653 274.558 362.448 274.432 362.377 274.218C362.274 273.942 362.416 273.641 362.685 273.539C363.507 273.238 364.353 273.017 365.214 272.859C365.499 272.811 365.768 273.001 365.823 273.286C365.871 273.57 365.681 273.847 365.396 273.894C364.598 274.037 363.807 274.25 363.049 274.527C362.993 274.55 362.93 274.558 362.867 274.558ZM358.527 277.088C358.377 277.088 358.227 277.024 358.124 276.898C357.935 276.677 357.966 276.345 358.188 276.155C358.851 275.594 359.571 275.088 360.322 274.653C360.575 274.503 360.891 274.59 361.041 274.843C361.183 275.096 361.104 275.42 360.851 275.562C360.148 275.965 359.484 276.44 358.859 276.961C358.765 277.048 358.646 277.088 358.527 277.088ZM355.302 280.945C355.215 280.945 355.121 280.921 355.042 280.874C354.789 280.732 354.702 280.408 354.844 280.155C355.279 279.404 355.785 278.676 356.338 278.012C356.528 277.783 356.86 277.76 357.081 277.941C357.302 278.131 357.334 278.463 357.144 278.684C356.63 279.309 356.164 279.981 355.761 280.676C355.658 280.85 355.484 280.945 355.302 280.945ZM353.595 285.672C353.571 285.672 353.54 285.672 353.508 285.664C353.224 285.616 353.026 285.34 353.081 285.055C353.224 284.194 353.453 283.348 353.745 282.526C353.848 282.257 354.148 282.115 354.417 282.21C354.694 282.312 354.836 282.613 354.733 282.882C354.465 283.648 354.251 284.439 354.117 285.237C354.077 285.49 353.848 285.672 353.595 285.672ZM353.176 290.707C353.168 290.707 353.152 290.707 353.145 290.707C352.852 290.683 352.631 290.43 352.654 290.138L352.828 287.624C352.844 287.332 353.097 287.11 353.39 287.134C353.674 287.15 353.895 287.403 353.872 287.695L353.706 290.217C353.682 290.493 353.453 290.707 353.176 290.707ZM352.836 295.742C352.82 295.742 352.813 295.742 352.797 295.742C352.504 295.726 352.291 295.473 352.307 295.181L352.481 292.659C352.504 292.375 352.749 292.153 353.042 292.169C353.334 292.193 353.556 292.446 353.532 292.73L353.358 295.252C353.342 295.529 353.105 295.742 352.836 295.742ZM352.488 300.785C352.481 300.785 352.465 300.785 352.457 300.785C352.164 300.761 351.943 300.516 351.967 300.224L352.133 297.702C352.156 297.41 352.409 297.196 352.694 297.212C352.986 297.236 353.208 297.481 353.184 297.773L353.018 300.295C352.994 300.572 352.765 300.785 352.488 300.785ZM352.149 305.828C352.133 305.828 352.117 305.828 352.109 305.82C351.817 305.804 351.603 305.551 351.619 305.267L351.793 302.745C351.809 302.453 352.062 302.231 352.354 302.255C352.639 302.271 352.86 302.524 352.844 302.816L352.67 305.338C352.647 305.614 352.417 305.828 352.149 305.828ZM351.801 310.863C351.785 310.863 351.777 310.863 351.761 310.863C351.477 310.847 351.255 310.594 351.279 310.302L351.445 307.78C351.469 307.496 351.714 307.274 352.006 307.29C352.299 307.314 352.52 307.567 352.496 307.851L352.322 310.373C352.307 310.65 352.077 310.863 351.801 310.863ZM351.453 315.906C351.445 315.906 351.429 315.906 351.421 315.906C351.129 315.882 350.908 315.637 350.931 315.345L351.105 312.823C351.121 312.531 351.374 312.309 351.666 312.333C351.951 312.357 352.172 312.602 352.156 312.894L351.983 315.416C351.959 315.693 351.73 315.906 351.453 315.906ZM351.113 320.949C351.097 320.949 351.089 320.949 351.074 320.941C350.781 320.925 350.568 320.672 350.584 320.38L350.757 317.866C350.781 317.574 351.026 317.36 351.319 317.376C351.611 317.392 351.825 317.645 351.809 317.937L351.635 320.459C351.619 320.735 351.39 320.949 351.113 320.949ZM350.765 325.984C350.757 325.984 350.742 325.984 350.734 325.984C350.441 325.968 350.22 325.715 350.244 325.423L350.418 322.901C350.433 322.617 350.686 322.395 350.971 322.411C351.263 322.435 351.485 322.688 351.461 322.972L351.295 325.494C351.271 325.771 351.042 325.984 350.765 325.984ZM350.425 331.027C350.41 331.027 350.394 331.027 350.386 331.027C350.093 331.003 349.88 330.75 349.896 330.466L350.07 327.944C350.086 327.652 350.338 327.438 350.631 327.454C350.916 327.478 351.137 327.723 351.121 328.015L350.947 330.537C350.923 330.814 350.694 331.027 350.425 331.027ZM350.078 336.07C350.07 336.07 350.054 336.07 350.038 336.07C349.754 336.046 349.532 335.793 349.556 335.501L349.722 332.987C349.746 332.695 349.991 332.473 350.283 332.497C350.576 332.513 350.797 332.766 350.773 333.058L350.599 335.58C350.584 335.857 350.354 336.07 350.078 336.07ZM349.73 341.105C349.722 341.105 349.706 341.105 349.698 341.105C349.406 341.089 349.184 340.836 349.208 340.544L349.382 338.022C349.398 337.738 349.651 337.516 349.943 337.532C350.228 337.556 350.449 337.809 350.433 338.101L350.259 340.615C350.236 340.892 350.007 341.105 349.73 341.105ZM349.39 346.148C349.374 346.148 349.366 346.148 349.35 346.148C349.058 346.124 348.845 345.879 348.86 345.587L349.034 343.065C349.058 342.773 349.303 342.559 349.595 342.575C349.888 342.599 350.101 342.844 350.086 343.136L349.912 345.658C349.896 345.935 349.667 346.148 349.39 346.148ZM349.042 351.191C349.034 351.191 349.018 351.191 349.011 351.183C348.718 351.167 348.497 350.914 348.52 350.63L348.686 348.108C348.71 347.816 348.963 347.602 349.256 347.618C349.54 347.634 349.761 347.887 349.738 348.179L349.564 350.701C349.548 350.978 349.319 351.191 349.042 351.191ZM348.702 356.226C348.686 356.226 348.679 356.226 348.663 356.226C348.37 356.21 348.157 355.957 348.173 355.665L348.347 353.143C348.362 352.859 348.615 352.637 348.908 352.661C349.192 352.677 349.414 352.93 349.398 353.214L349.224 355.736C349.2 356.013 348.971 356.226 348.702 356.226Z" fill="white"/>
<path d="M372.511 293.79C372.392 293.79 372.274 293.75 372.179 293.671L366.227 288.818C365.997 288.636 365.966 288.304 366.148 288.083C366.329 287.853 366.661 287.822 366.891 288.004L371.673 291.9L370.938 288.525C370.874 288.241 371.056 287.964 371.341 287.901C371.625 287.838 371.902 288.019 371.965 288.296L373.024 293.149C373.072 293.371 372.977 293.592 372.787 293.711C372.7 293.766 372.606 293.79 372.511 293.79Z" fill="white"/>
</g>
<defs>
<filter id="filter0_d_2612_8321" x="0" y="0" width="1288" height="508" filterUnits="userSpaceOnUse" color-interpolation-filters="sRGB">
<feFlood flood-opacity="0" result="BackgroundImageFix"/>
<feColorMatrix in="SourceAlpha" type="matrix" values="0 0 0 0 0 0 0 0 0 0 0 0 0 0 0 0 0 0 127 0" result="hardAlpha"/>
<feOffset dy="4"/>
<feGaussianBlur stdDeviation="2"/>
<feComposite in2="hardAlpha" operator="out"/>
<feColorMatrix type="matrix" values="0 0 0 0 0 0 0 0 0 0 0 0 0 0 0 0 0 0 0.25 0"/>
<feBlend mode="normal" in2="BackgroundImageFix" result="effect1_dropShadow_2612_8321"/>
<feBlend mode="normal" in="SourceGraphic" in2="effect1_dropShadow_2612_8321" result="shape"/>
</filter>
</defs>
</svg>
